%TF.GenerationSoftware,Altium Limited,Altium Designer,19.1.8 (144)*%
G04 Layer_Color=32768*
%FSLAX45Y45*%
%MOMM*%
%TF.FileFunction,Other,Mechanical_15*%
%TF.Part,Single*%
G01*
G75*
%TA.AperFunction,NonConductor*%
%ADD75C,0.10000*%
%ADD76C,0.05000*%
D75*
X1432443Y8282441D02*
X1532443D01*
X1482443Y8232441D02*
Y8332441D01*
X4379629Y9350163D02*
Y9450163D01*
X4329629Y9400163D02*
X4429629D01*
X785000Y5989993D02*
X885000D01*
X835000Y5939993D02*
Y6039994D01*
X1125279Y5989709D02*
X1225279D01*
X1175280Y5939709D02*
Y6039709D01*
X1465000Y5989993D02*
X1565000D01*
X1515001Y5939993D02*
Y6039994D01*
X1805000Y5989993D02*
X1905000D01*
X1855000Y5939993D02*
Y6039994D01*
X5867500Y6907500D02*
X5967500D01*
X5917500Y6857500D02*
Y6957500D01*
X5867500Y7301999D02*
X5967500D01*
X5917500Y7251999D02*
Y7352000D01*
X5867500Y6117500D02*
X5967500D01*
X5917500Y6067500D02*
Y6167500D01*
X5867500Y6513000D02*
X5967500D01*
X5917500Y6463000D02*
Y6563000D01*
X5867500Y7714500D02*
X5967500D01*
X5917500Y7664500D02*
Y7764500D01*
X5867500Y8121500D02*
X5967500D01*
X5917500Y8071500D02*
Y8171500D01*
X1805000Y1592500D02*
Y1692500D01*
X1755000Y1642500D02*
X1855000D01*
X5992500Y5552500D02*
X6092500D01*
X6042500Y5502500D02*
Y5602500D01*
X3742500Y5345000D02*
X3842500D01*
X3792500Y5295000D02*
Y5395000D01*
X5940001Y1770500D02*
X6040001D01*
X5990001Y1720500D02*
Y1820500D01*
X5940001Y2197000D02*
X6040001D01*
X5990001Y2147000D02*
Y2247000D01*
X5940000Y3476501D02*
X6040000D01*
X5990000Y3426501D02*
Y3526501D01*
X5940000Y3903000D02*
X6040000D01*
X5990000Y3853000D02*
Y3953000D01*
X5940000Y2623500D02*
X6040000D01*
X5990000Y2573500D02*
Y2673500D01*
X5940000Y3050000D02*
X6040000D01*
X5990000Y3000000D02*
Y3100000D01*
X2282500Y4088000D02*
X2382500D01*
X2332500Y4038000D02*
Y4138000D01*
X2280000Y3430000D02*
X2380000D01*
X2330000Y3380000D02*
Y3480000D01*
D76*
X1842443Y8022441D02*
Y8542441D01*
X1122443D02*
X1842443D01*
X1122443Y8022441D02*
X1842443D01*
X1122443D02*
Y8542441D01*
X4019629Y9140163D02*
X4739629D01*
X4019629Y9660163D02*
X4739629D01*
Y9140163D02*
Y9660163D01*
X4019629Y9140163D02*
Y9660163D01*
X680000Y5833993D02*
Y6145993D01*
X990000Y5833993D02*
Y6145993D01*
X680000D02*
X990000D01*
X680000Y5833993D02*
X990000D01*
X1020280Y5833709D02*
Y6145709D01*
X1330280Y5833709D02*
Y6145709D01*
X1020280D02*
X1330280D01*
X1020280Y5833709D02*
X1330280D01*
X1360001Y5833993D02*
Y6145993D01*
X1670000Y5833993D02*
Y6145993D01*
X1360001D02*
X1670000D01*
X1360001Y5833993D02*
X1670000D01*
X1700000D02*
Y6145993D01*
X2010000Y5833993D02*
Y6145993D01*
X1700000D02*
X2010000D01*
X1700000Y5833993D02*
X2010000D01*
X5705000Y6727500D02*
Y7087500D01*
X6130000Y6727500D02*
Y7087500D01*
X5705000D02*
X6130000D01*
X5705000Y6727500D02*
X6130000D01*
X5705001Y7121999D02*
Y7482000D01*
X6130000Y7121999D02*
Y7482000D01*
X5705001D02*
X6130000D01*
X5705001Y7121999D02*
X6130000D01*
X5705001Y5937500D02*
Y6297500D01*
X6130000Y5937500D02*
Y6297500D01*
X5705001D02*
X6130000D01*
X5705001Y5937500D02*
X6130000D01*
X5705001Y6333000D02*
Y6693000D01*
X6130000Y6333000D02*
Y6693000D01*
X5705001D02*
X6130000D01*
X5705001Y6333000D02*
X6130000D01*
X5705001Y7534500D02*
Y7894500D01*
X6130000Y7534500D02*
Y7894500D01*
X5705001D02*
X6130000D01*
X5705001Y7534500D02*
X6130000D01*
X5705000Y7941500D02*
Y8301500D01*
X6130000Y7941500D02*
Y8301500D01*
X5705000D02*
X6130000D01*
X5705000Y7941500D02*
X6130000D01*
X2175000Y1142500D02*
Y2142500D01*
X1435000Y1142500D02*
X2175000D01*
X1435000D02*
Y2142500D01*
X2175000D01*
X5632500Y5242500D02*
X6452500D01*
X5632500D02*
Y5862500D01*
X6452500D01*
Y5242500D02*
Y5862500D01*
X3077500Y4630000D02*
Y6060000D01*
X4507500Y4630000D02*
Y6060000D01*
X3077500D02*
X4507500D01*
X3077500Y4630000D02*
X4507500D01*
X5777501Y1590500D02*
Y1950500D01*
X6202501Y1590500D02*
Y1950500D01*
X5777501D02*
X6202501D01*
X5777501Y1590500D02*
X6202501D01*
X5777501Y2017000D02*
Y2377000D01*
X6202501Y2017000D02*
Y2377000D01*
X5777501D02*
X6202501D01*
X5777501Y2017000D02*
X6202501D01*
X5777501Y3296501D02*
Y3656501D01*
X6202500Y3296501D02*
Y3656501D01*
X5777501D02*
X6202500D01*
X5777501Y3296501D02*
X6202500D01*
X5777501Y3723000D02*
Y4083000D01*
X6202500Y3723000D02*
Y4083000D01*
X5777501D02*
X6202500D01*
X5777501Y3723000D02*
X6202500D01*
X5777501Y2443500D02*
Y2803500D01*
X6202500Y2443500D02*
Y2803500D01*
X5777501D02*
X6202500D01*
X5777501Y2443500D02*
X6202500D01*
X5777501Y2870000D02*
Y3230000D01*
X6202500Y2870000D02*
Y3230000D01*
X5777501D02*
X6202500D01*
X5777501Y2870000D02*
X6202500D01*
X2745000Y3793000D02*
Y4383000D01*
X1920000Y3793000D02*
Y4383000D01*
Y3793000D02*
X2745000D01*
X1920000Y4383000D02*
X2745000D01*
X2742500Y3135000D02*
Y3725000D01*
X1917500Y3135000D02*
Y3725000D01*
Y3135000D02*
X2742500D01*
X1917500Y3725000D02*
X2742500D01*
%TF.MD5,098e5ffd19fd680191ce9b5dcaa8cf98*%
M02*
