%TF.GenerationSoftware,Altium Limited,Altium Designer,19.1.8 (144)*%
G04 Layer_Color=8388736*
%FSLAX45Y45*%
%MOMM*%
%TF.FileFunction,Soldermask,Top*%
%TF.Part,Single*%
G01*
G75*
%TA.AperFunction,ComponentPad*%
%ADD44C,1.70320*%
%ADD45R,1.70320X1.70320*%
%ADD46C,1.70320*%
%ADD47C,2.20320*%
%ADD48C,1.05320*%
%ADD49R,1.70320X1.70320*%
%TA.AperFunction,ViaPad*%
%ADD50C,0.80320*%
%ADD51C,1.20320*%
%ADD52C,5.20320*%
%TA.AperFunction,SMDPad,CuDef*%
G04:AMPARAMS|DCode=60|XSize=4.6032mm|YSize=2.4032mm|CornerRadius=0.2116mm|HoleSize=0mm|Usage=FLASHONLY|Rotation=0.000|XOffset=0mm|YOffset=0mm|HoleType=Round|Shape=RoundedRectangle|*
%AMROUNDEDRECTD60*
21,1,4.60320,1.98000,0,0,0.0*
21,1,4.18000,2.40320,0,0,0.0*
1,1,0.42320,2.09000,-0.99000*
1,1,0.42320,-2.09000,-0.99000*
1,1,0.42320,-2.09000,0.99000*
1,1,0.42320,2.09000,0.99000*
%
%ADD60ROUNDEDRECTD60*%
%ADD61R,1.50320X0.90320*%
%ADD62R,0.90320X1.50320*%
%ADD63O,1.34620X0.52070*%
G04:AMPARAMS|DCode=64|XSize=1.9532mm|YSize=3.1532mm|CornerRadius=0.1891mm|HoleSize=0mm|Usage=FLASHONLY|Rotation=0.000|XOffset=0mm|YOffset=0mm|HoleType=Round|Shape=RoundedRectangle|*
%AMROUNDEDRECTD64*
21,1,1.95320,2.77500,0,0,0.0*
21,1,1.57500,3.15320,0,0,0.0*
1,1,0.37820,0.78750,-1.38750*
1,1,0.37820,-0.78750,-1.38750*
1,1,0.37820,-0.78750,1.38750*
1,1,0.37820,0.78750,1.38750*
%
%ADD64ROUNDEDRECTD64*%
%ADD65R,1.10320X1.90320*%
G04:AMPARAMS|DCode=66|XSize=3.1532mm|YSize=3.7032mm|CornerRadius=0.2491mm|HoleSize=0mm|Usage=FLASHONLY|Rotation=180.000|XOffset=0mm|YOffset=0mm|HoleType=Round|Shape=RoundedRectangle|*
%AMROUNDEDRECTD66*
21,1,3.15320,3.20500,0,0,180.0*
21,1,2.65500,3.70320,0,0,180.0*
1,1,0.49820,-1.32750,1.60250*
1,1,0.49820,1.32750,1.60250*
1,1,0.49820,1.32750,-1.60250*
1,1,0.49820,-1.32750,-1.60250*
%
%ADD66ROUNDEDRECTD66*%
%ADD67C,1.20320*%
%ADD68R,1.10320X1.00320*%
%ADD69R,1.55320X0.80320*%
%ADD70R,1.55320X0.60320*%
%ADD71R,2.60320X2.20320*%
%ADD72O,1.85320X0.55320*%
%ADD73O,0.55320X1.85320*%
%ADD74O,1.90320X0.85320*%
D44*
X6652500Y3749000D02*
D03*
Y4257000D02*
D03*
Y4003000D02*
D03*
Y1209000D02*
D03*
Y1717000D02*
D03*
Y1463000D02*
D03*
Y2479000D02*
D03*
Y2987000D02*
D03*
Y2733000D02*
D03*
X1207500Y4151500D02*
D03*
Y4405500D02*
D03*
Y3366500D02*
D03*
Y3620500D02*
D03*
X1876500Y5331500D02*
D03*
Y5077500D02*
D03*
X1622500Y5331500D02*
D03*
Y5077500D02*
D03*
X1368500Y5331500D02*
D03*
Y5077500D02*
D03*
X1114500Y5331500D02*
D03*
X5717500Y5327500D02*
D03*
X6367500D02*
D03*
Y5777500D02*
D03*
X2416000Y9554000D02*
D03*
X1400000D02*
D03*
X6652500Y7711500D02*
D03*
Y7457500D02*
D03*
Y7203500D02*
D03*
Y6949500D02*
D03*
Y6695500D02*
D03*
Y6441500D02*
D03*
Y6187500D02*
D03*
Y4651000D02*
D03*
X549000Y4022500D02*
D03*
X6337500Y4648500D02*
D03*
X543500Y3690714D02*
D03*
X797500D02*
D03*
X543500Y3347857D02*
D03*
X797500D02*
D03*
X3948000Y2596000D02*
D03*
Y818000D02*
D03*
Y1072000D02*
D03*
Y1326000D02*
D03*
Y1580000D02*
D03*
Y1834000D02*
D03*
Y2088000D02*
D03*
Y2342000D02*
D03*
Y2850000D02*
D03*
X543500Y3005000D02*
D03*
X797500D02*
D03*
X543500Y2662143D02*
D03*
X797500D02*
D03*
X543500Y2319286D02*
D03*
X797500D02*
D03*
X543500Y1976429D02*
D03*
X797500D02*
D03*
X3582000Y6606000D02*
D03*
X3328000Y6860000D02*
D03*
Y6606000D02*
D03*
X3074000Y6860000D02*
D03*
Y6606000D02*
D03*
X2820000Y6860000D02*
D03*
Y6606000D02*
D03*
X2566000Y6860000D02*
D03*
Y6606000D02*
D03*
X2312000Y6860000D02*
D03*
Y6606000D02*
D03*
X2058000Y6860000D02*
D03*
Y6606000D02*
D03*
X1804000Y6860000D02*
D03*
Y6606000D02*
D03*
X1550000Y6860000D02*
D03*
Y6606000D02*
D03*
X1296000Y6860000D02*
D03*
Y6606000D02*
D03*
X1042000Y6860000D02*
D03*
Y6606000D02*
D03*
X788000Y6860000D02*
D03*
Y6606000D02*
D03*
X543500Y1633572D02*
D03*
X797500D02*
D03*
X543500Y1290714D02*
D03*
X797500D02*
D03*
X3186000Y1072000D02*
D03*
Y1326000D02*
D03*
Y1580000D02*
D03*
Y1834000D02*
D03*
Y2088000D02*
D03*
Y2342000D02*
D03*
Y2596000D02*
D03*
D45*
X6652500Y3495000D02*
D03*
Y955000D02*
D03*
Y2225000D02*
D03*
X1207500Y3897500D02*
D03*
Y3112500D02*
D03*
X2416000Y9300000D02*
D03*
X1400000D02*
D03*
X6652500Y7965500D02*
D03*
Y4905000D02*
D03*
X6337500Y4902500D02*
D03*
X3948000Y3104000D02*
D03*
X3186000Y818000D02*
D03*
D46*
X5475000Y3050000D02*
D03*
Y2623500D02*
D03*
X5475000Y1770500D02*
D03*
X5475000Y3476501D02*
D03*
X2140000Y987500D02*
D03*
X5475000Y3903000D02*
D03*
X5475000Y2197000D02*
D03*
X5402500Y7719500D02*
D03*
X5402500Y8126500D02*
D03*
X5402500Y6122500D02*
D03*
Y6518000D02*
D03*
X5402500Y6912501D02*
D03*
X5402500Y7307000D02*
D03*
D47*
X5865000Y8847500D02*
D03*
X2967814Y7729778D02*
D03*
D48*
X4298500Y6619000D02*
D03*
Y6746000D02*
D03*
X4425500Y6619000D02*
D03*
Y6746000D02*
D03*
X4552500Y6619000D02*
D03*
Y6746000D02*
D03*
X4679500Y6619000D02*
D03*
Y6746000D02*
D03*
X4806500Y6619000D02*
D03*
Y6746000D02*
D03*
D49*
X1114500Y5077500D02*
D03*
X5717500Y5777500D02*
D03*
X295000Y4022500D02*
D03*
X289500Y3690714D02*
D03*
Y3347857D02*
D03*
Y3005000D02*
D03*
Y2662143D02*
D03*
Y2319286D02*
D03*
Y1976429D02*
D03*
X3582000Y6860000D02*
D03*
X289500Y1633572D02*
D03*
Y1290714D02*
D03*
D50*
X2275000Y3350000D02*
D03*
Y4000000D02*
D03*
X1537443Y8392441D02*
D03*
Y8282441D02*
D03*
X1427443Y8392441D02*
D03*
Y8282441D02*
D03*
X1537443Y8172441D02*
D03*
X1427443D02*
D03*
X4490000Y9592500D02*
D03*
X4595000Y9837500D02*
D03*
X4915000Y9840000D02*
D03*
Y9670155D02*
D03*
X2130000Y4822779D02*
D03*
X4037500Y7030000D02*
D03*
X4087500Y5012500D02*
D03*
X4232180Y7095000D02*
D03*
X3650000Y6300000D02*
D03*
X1750000Y7325000D02*
D03*
X1653718Y7325000D02*
D03*
X1922500Y7370000D02*
D03*
X1082500Y7407500D02*
D03*
X2380000Y7142500D02*
D03*
X2505000Y7035000D02*
D03*
X1699613Y8735000D02*
D03*
Y8520000D02*
D03*
X3160154Y5867786D02*
D03*
X2970000Y5842500D02*
D03*
X2860000Y5847500D02*
D03*
X2837500Y5370000D02*
D03*
X2837638Y5020245D02*
D03*
X3102500Y7467500D02*
D03*
X2790000Y7317500D02*
D03*
X595000Y7065000D02*
D03*
X6327500Y4415000D02*
D03*
X2125000Y5142779D02*
D03*
X2117500Y5462779D02*
D03*
X2057500Y5670000D02*
D03*
X6312500Y3687500D02*
D03*
Y3261001D02*
D03*
Y2834500D02*
D03*
Y2408000D02*
D03*
X6312500Y1981500D02*
D03*
Y1555000D02*
D03*
X2125000Y7042500D02*
D03*
X4232500Y6280000D02*
D03*
X3900000Y7075000D02*
D03*
X5144979Y5699685D02*
D03*
X4434629Y9290163D02*
D03*
X4324629D02*
D03*
X4434629Y9400163D02*
D03*
X4324629D02*
D03*
X4434629Y9510163D02*
D03*
X4324629D02*
D03*
X4232500Y5455000D02*
D03*
X5110500Y2623000D02*
D03*
X1637500Y2020000D02*
D03*
X1632500Y2100000D02*
D03*
X1650000Y1925000D02*
D03*
X1705000Y1862500D02*
D03*
X1762500Y1807500D02*
D03*
X4485000Y4747500D02*
D03*
X4525000Y4855000D02*
D03*
X4620000Y5052500D02*
D03*
X4565000Y4962500D02*
D03*
X4202500Y4487500D02*
D03*
X4085000Y4335000D02*
D03*
X4100000Y4537500D02*
D03*
X3967500Y4587500D02*
D03*
X4707500Y5110000D02*
D03*
X3752500Y4970000D02*
D03*
X3690000Y5035000D02*
D03*
X3917691Y5140251D02*
D03*
X3917500Y5065363D02*
D03*
X4055198Y4890239D02*
D03*
X4007696Y4947741D02*
D03*
X3385000Y4055000D02*
D03*
X3327500Y3960000D02*
D03*
X3405000Y4177500D02*
D03*
X3285000Y3840000D02*
D03*
X3730000Y5452500D02*
D03*
X3957500Y5670000D02*
D03*
X3587675Y5320260D02*
D03*
X4080000Y5220000D02*
D03*
X2510122Y6035295D02*
D03*
X4617500Y5985000D02*
D03*
X4027500Y5720000D02*
D03*
X3685180Y5370262D02*
D03*
X2610000Y6287500D02*
D03*
X2670000Y4855000D02*
D03*
X2717500Y6320000D02*
D03*
X2560000Y6165000D02*
D03*
X3508750Y7320000D02*
D03*
X4160000Y1927500D02*
D03*
Y2252500D02*
D03*
X2214845Y8942500D02*
D03*
X3875000Y4877500D02*
D03*
X3895000Y5442500D02*
D03*
X3585000D02*
D03*
Y5720000D02*
D03*
X3627500Y4920000D02*
D03*
X3730000Y5140000D02*
D03*
X3820447Y6105453D02*
D03*
X3035000Y5570000D02*
D03*
X2327835Y8507717D02*
D03*
X2490334D02*
D03*
X2650335D02*
D03*
X2810314Y8513032D02*
D03*
X2195314Y8662433D02*
D03*
Y8312433D02*
D03*
X5707479Y9625470D02*
D03*
X5547500Y9620155D02*
D03*
X5387500D02*
D03*
X5225000D02*
D03*
X4907500Y9510155D02*
D03*
X5092500Y9430155D02*
D03*
X4172186Y8755222D02*
D03*
X1275000Y7637500D02*
D03*
X1820000Y8362500D02*
D03*
X1807500Y8582500D02*
D03*
X1357500D02*
D03*
X1155314Y8257441D02*
D03*
X1082814Y8599934D02*
D03*
X1115314Y7869933D02*
D03*
X955314D02*
D03*
X432814Y8299933D02*
D03*
X4719199Y9466854D02*
D03*
X4682500Y9662655D02*
D03*
X4240000D02*
D03*
X3852500Y8987655D02*
D03*
X5092500Y9780155D02*
D03*
X4012500Y8987655D02*
D03*
X3330000Y9417655D02*
D03*
X3980000Y9717656D02*
D03*
X4052500Y9375163D02*
D03*
X847500Y6084993D02*
D03*
X1187779Y6084709D02*
D03*
X1527500Y6084993D02*
D03*
X1867500D02*
D03*
Y5894994D02*
D03*
X1527500D02*
D03*
X1187779Y5894709D02*
D03*
X847500Y5894994D02*
D03*
X6880000Y1247500D02*
D03*
Y3275000D02*
D03*
Y3787500D02*
D03*
X4590000Y1600000D02*
D03*
X4582500Y1752500D02*
D03*
X4750000Y2427500D02*
D03*
X4587500Y2430000D02*
D03*
X4582500Y2590000D02*
D03*
X4580000Y2750000D02*
D03*
X4292500Y3110000D02*
D03*
Y1052500D02*
D03*
X4872179Y7290000D02*
D03*
X5602500Y6314500D02*
D03*
Y6710000D02*
D03*
X5602500Y7104500D02*
D03*
X5602500Y7498999D02*
D03*
Y7911500D02*
D03*
X5602500Y8318500D02*
D03*
X5675000Y4100000D02*
D03*
Y3673501D02*
D03*
Y3247000D02*
D03*
Y2820500D02*
D03*
X5675001Y2394000D02*
D03*
Y1967500D02*
D03*
X5390000Y2060000D02*
D03*
X5425000Y2470000D02*
D03*
Y2892500D02*
D03*
X5410000Y3332500D02*
D03*
X5325000Y3805000D02*
D03*
X2610000Y4775000D02*
D03*
X4000000Y5370000D02*
D03*
X3935000Y5320000D02*
D03*
X5152500Y3050000D02*
D03*
X3277500Y4605000D02*
D03*
X5202500Y2623500D02*
D03*
X1892500Y1925000D02*
D03*
X5145000Y4980000D02*
D03*
X2237500Y2282501D02*
D03*
X2652500Y2060001D02*
D03*
X1367500Y1210000D02*
D03*
X3665000Y4195000D02*
D03*
X4712500Y6107500D02*
D03*
X4340000Y5887500D02*
D03*
X4142500Y5370000D02*
D03*
X4340000Y5812500D02*
D03*
X4202500Y5320000D02*
D03*
X2560000Y4510000D02*
D03*
X2512500Y4430000D02*
D03*
X1300001Y2380001D02*
D03*
X1620001D02*
D03*
X1780001Y2377501D02*
D03*
X1950000Y1802501D02*
D03*
X1940001Y2377501D02*
D03*
X1460001Y2380001D02*
D03*
X2100000D02*
D03*
X3035000Y5720000D02*
D03*
X3817500Y4587500D02*
D03*
X3035000Y5270000D02*
D03*
Y5120000D02*
D03*
X4550000Y5270000D02*
D03*
Y5420000D02*
D03*
X3967500Y6102500D02*
D03*
D51*
X6424980Y6017215D02*
D03*
X6425001Y6418000D02*
D03*
X6424980Y6807215D02*
D03*
X6425001Y7207000D02*
D03*
Y7619500D02*
D03*
X6425000Y8026500D02*
D03*
X2927500Y4622500D02*
D03*
X2715000Y2217500D02*
D03*
X2710000Y2392500D02*
D03*
X2997500Y3455000D02*
D03*
X3025000Y4100000D02*
D03*
X3647500Y7580000D02*
D03*
Y8180000D02*
D03*
X6055000Y5772500D02*
D03*
D52*
X6500000Y500000D02*
D03*
X500000Y9500000D02*
D03*
Y500000D02*
D03*
X6500000Y9500000D02*
D03*
D60*
X4537500Y7870000D02*
D03*
X3647500D02*
D03*
D61*
X6240000Y7397000D02*
D03*
Y7207000D02*
D03*
X5602500Y7397000D02*
D03*
Y7207000D02*
D03*
X955314Y7967433D02*
D03*
Y7777433D02*
D03*
X1115314Y7967433D02*
D03*
Y7777433D02*
D03*
X1272814D02*
D03*
Y7967433D02*
D03*
X955314Y8409934D02*
D03*
Y8599934D02*
D03*
X780314Y8409934D02*
D03*
Y8599934D02*
D03*
X610314Y8599934D02*
D03*
Y8409934D02*
D03*
X432814Y8599934D02*
D03*
Y8409934D02*
D03*
X610314Y8292434D02*
D03*
Y8102433D02*
D03*
X777814Y8102441D02*
D03*
Y8292441D02*
D03*
X955314Y8102441D02*
D03*
Y8292441D02*
D03*
X2810314Y8214933D02*
D03*
Y8404933D02*
D03*
X2650314Y8214933D02*
D03*
Y8404933D02*
D03*
X2490314D02*
D03*
Y8214933D02*
D03*
X2327814Y8404933D02*
D03*
Y8214933D02*
D03*
X5020000Y5247500D02*
D03*
Y5057500D02*
D03*
Y5437500D02*
D03*
Y5627500D02*
D03*
X4685000Y5437500D02*
D03*
Y5247500D02*
D03*
X4855000Y5437500D02*
D03*
Y5247500D02*
D03*
X6312500Y2292000D02*
D03*
Y2102000D02*
D03*
X5675001Y2292000D02*
D03*
Y2102000D02*
D03*
X1935000Y5577500D02*
D03*
Y5767500D02*
D03*
X1775000Y5577500D02*
D03*
Y5767500D02*
D03*
X1595000Y5577500D02*
D03*
Y5767500D02*
D03*
X1435000Y5577500D02*
D03*
Y5767500D02*
D03*
X1255279Y5577216D02*
D03*
Y5767216D02*
D03*
X1095279Y5577216D02*
D03*
Y5767216D02*
D03*
X915000Y5577500D02*
D03*
Y5767500D02*
D03*
X755000Y5577500D02*
D03*
Y5767500D02*
D03*
X5707500Y9332655D02*
D03*
Y9522655D02*
D03*
X5547500Y9332655D02*
D03*
Y9522655D02*
D03*
X5387500D02*
D03*
Y9332655D02*
D03*
X5225000Y9522655D02*
D03*
Y9332655D02*
D03*
X4170000Y8895155D02*
D03*
Y9085155D02*
D03*
X4012500D02*
D03*
Y8895155D02*
D03*
X3852500Y9085155D02*
D03*
Y8895155D02*
D03*
Y9527656D02*
D03*
Y9717656D02*
D03*
X3677500Y9527656D02*
D03*
Y9717656D02*
D03*
X3507500Y9717656D02*
D03*
Y9527656D02*
D03*
X3330000Y9717656D02*
D03*
Y9527656D02*
D03*
X3852500Y9220163D02*
D03*
Y9410163D02*
D03*
X3675000Y9220163D02*
D03*
Y9410163D02*
D03*
X3507500Y9410155D02*
D03*
Y9220155D02*
D03*
X1300001Y2472501D02*
D03*
Y2282500D02*
D03*
X6240000Y7002500D02*
D03*
Y6812499D02*
D03*
X5602500Y7002501D02*
D03*
Y6812500D02*
D03*
X6240000Y6212499D02*
D03*
Y6022499D02*
D03*
X5602500Y6212500D02*
D03*
Y6022500D02*
D03*
X6240000Y6608000D02*
D03*
Y6418000D02*
D03*
X5602500Y6608000D02*
D03*
Y6418000D02*
D03*
X6240000Y7809500D02*
D03*
Y7619500D02*
D03*
X5605000Y7804500D02*
D03*
Y7614500D02*
D03*
X6239999Y8216500D02*
D03*
Y8026500D02*
D03*
X5602500Y8216500D02*
D03*
Y8026500D02*
D03*
X1300001Y2765001D02*
D03*
Y2575000D02*
D03*
X1460001Y2282500D02*
D03*
Y2472501D02*
D03*
Y2765001D02*
D03*
Y2575000D02*
D03*
X1620001Y2282500D02*
D03*
Y2472501D02*
D03*
Y2765001D02*
D03*
Y2575000D02*
D03*
X1780001Y2282500D02*
D03*
Y2472501D02*
D03*
Y2765001D02*
D03*
Y2575000D02*
D03*
X1940001Y2282500D02*
D03*
Y2472501D02*
D03*
Y2765001D02*
D03*
Y2575000D02*
D03*
X2100000Y2282501D02*
D03*
Y2472501D02*
D03*
Y2765001D02*
D03*
Y2575001D02*
D03*
X3665000Y4282500D02*
D03*
Y4472501D02*
D03*
X3502500Y4472500D02*
D03*
Y4282500D02*
D03*
X3650000Y6200000D02*
D03*
Y6390000D02*
D03*
X2757500Y5100000D02*
D03*
Y5290000D02*
D03*
X2917500Y5100000D02*
D03*
Y5290000D02*
D03*
Y5740000D02*
D03*
Y5550000D02*
D03*
X2757500Y5740000D02*
D03*
Y5550000D02*
D03*
X6312500Y1865500D02*
D03*
Y1675500D02*
D03*
X5675001Y1865500D02*
D03*
Y1675500D02*
D03*
X6312500Y3571501D02*
D03*
Y3381500D02*
D03*
X5675000Y3571501D02*
D03*
Y3381500D02*
D03*
X6312500Y3998000D02*
D03*
Y3808000D02*
D03*
X5675000Y3998000D02*
D03*
Y3808000D02*
D03*
X6312500Y2718500D02*
D03*
Y2528500D02*
D03*
X5675000Y2718500D02*
D03*
Y2528500D02*
D03*
X6312500Y3145000D02*
D03*
Y2955000D02*
D03*
X5675000Y3145000D02*
D03*
Y2955000D02*
D03*
X4872500Y6190000D02*
D03*
Y6380000D02*
D03*
X4872179Y7005015D02*
D03*
Y7195015D02*
D03*
X4712500Y6190000D02*
D03*
Y6380000D02*
D03*
X4712180Y7005015D02*
D03*
Y7195015D02*
D03*
X4552500Y6190000D02*
D03*
Y6380000D02*
D03*
X4552180Y7005015D02*
D03*
Y7195015D02*
D03*
X4392500Y6190000D02*
D03*
Y6380000D02*
D03*
X4392180Y7005015D02*
D03*
Y7195015D02*
D03*
X4232500Y6190000D02*
D03*
Y6380000D02*
D03*
X4232180Y7005015D02*
D03*
Y7195015D02*
D03*
X6880000Y955000D02*
D03*
Y1145000D02*
D03*
Y3495000D02*
D03*
Y3685000D02*
D03*
Y2987000D02*
D03*
Y3177000D02*
D03*
X2842500Y3525000D02*
D03*
Y3335000D02*
D03*
X2857500Y4182501D02*
D03*
Y3992501D02*
D03*
D62*
X4997500Y9510155D02*
D03*
X4807500D02*
D03*
X4997500Y9670155D02*
D03*
X4807500D02*
D03*
X767814Y7902433D02*
D03*
X577814D02*
D03*
X2100314Y8392433D02*
D03*
X1910314D02*
D03*
X2100314Y8552433D02*
D03*
X1910314D02*
D03*
X5827500Y5067500D02*
D03*
X5637500D02*
D03*
X5827500Y4752500D02*
D03*
X5637500D02*
D03*
X5827500Y4910000D02*
D03*
X5637500D02*
D03*
X4482500Y2990000D02*
D03*
X4292500D02*
D03*
X4482500Y2820000D02*
D03*
X4292500D02*
D03*
X4482500Y2660000D02*
D03*
X4292500D02*
D03*
X4482500Y2500000D02*
D03*
X4292500D02*
D03*
X4482500Y2340000D02*
D03*
X4292500D02*
D03*
X4482500Y1832500D02*
D03*
X4292500D02*
D03*
X4482500Y1672500D02*
D03*
X4292500D02*
D03*
X4482500Y1512500D02*
D03*
X4292500D02*
D03*
X4482500Y1352500D02*
D03*
X4292500D02*
D03*
X4482500Y1182500D02*
D03*
X4292500D02*
D03*
X2410284Y4822779D02*
D03*
X2220284D02*
D03*
X2410284Y4982779D02*
D03*
X2220284D02*
D03*
X2410284Y5142779D02*
D03*
X2220284D02*
D03*
X2410284Y5302779D02*
D03*
X2220284D02*
D03*
X2410284Y5462779D02*
D03*
X2220284D02*
D03*
X2410284Y5622779D02*
D03*
X2220284D02*
D03*
X3665000Y9020155D02*
D03*
X3475000D02*
D03*
X1910314Y8232433D02*
D03*
X2100314D02*
D03*
X4997500Y9350155D02*
D03*
X4807500D02*
D03*
X1390000Y4090000D02*
D03*
X1580000D02*
D03*
X1682500Y4185000D02*
D03*
X1872500D02*
D03*
Y3992500D02*
D03*
X1682500D02*
D03*
X1387500Y3430000D02*
D03*
X1577500D02*
D03*
X1680000Y3527000D02*
D03*
X1870000D02*
D03*
Y3335000D02*
D03*
X1680000D02*
D03*
X2347500Y1737501D02*
D03*
X2537500D02*
D03*
X2537501Y2220001D02*
D03*
X2347501D02*
D03*
Y1900001D02*
D03*
X2537501D02*
D03*
Y2060001D02*
D03*
X2347501D02*
D03*
Y2380001D02*
D03*
X2537501D02*
D03*
X3987500Y4470000D02*
D03*
X3797499D02*
D03*
X3987500Y4310000D02*
D03*
X3797499D02*
D03*
X3797500Y6380000D02*
D03*
X3987500D02*
D03*
X3797500Y6220000D02*
D03*
X3987500D02*
D03*
X3302500Y6230000D02*
D03*
X3492500D02*
D03*
X2827500Y4311000D02*
D03*
X3017500D02*
D03*
X2812500Y3207000D02*
D03*
X3002500D02*
D03*
X2812500Y3653000D02*
D03*
X3002500D02*
D03*
D63*
X1699613Y8407441D02*
D03*
Y8357441D02*
D03*
Y8457441D02*
D03*
Y8257441D02*
D03*
Y8307441D02*
D03*
Y8207441D02*
D03*
Y8107441D02*
D03*
Y8157441D02*
D03*
X1265273Y8457441D02*
D03*
Y8407441D02*
D03*
Y8357441D02*
D03*
Y8257441D02*
D03*
Y8307441D02*
D03*
Y8107441D02*
D03*
Y8157441D02*
D03*
Y8207441D02*
D03*
X4596799Y9225163D02*
D03*
Y9275163D02*
D03*
Y9325163D02*
D03*
Y9375163D02*
D03*
Y9425163D02*
D03*
Y9475163D02*
D03*
Y9525163D02*
D03*
Y9575163D02*
D03*
X4162459Y9225163D02*
D03*
Y9275163D02*
D03*
Y9325163D02*
D03*
Y9375163D02*
D03*
Y9425163D02*
D03*
Y9475163D02*
D03*
Y9525163D02*
D03*
Y9575163D02*
D03*
D64*
X1482443Y8282441D02*
D03*
X4379629Y9400163D02*
D03*
D65*
X1707814Y7494933D02*
D03*
X1417814D02*
D03*
X1707814Y7917433D02*
D03*
X1417814D02*
D03*
X1707814Y7704933D02*
D03*
X1417814D02*
D03*
X4605000Y9035155D02*
D03*
X4315000D02*
D03*
X4605000Y8612655D02*
D03*
X4315000D02*
D03*
X4605000Y8822655D02*
D03*
X4315000D02*
D03*
D66*
X2602500Y7760000D02*
D03*
X2057500D02*
D03*
X5482500Y8847500D02*
D03*
X4937500D02*
D03*
D67*
X1860000Y3760000D02*
D03*
X1867500Y4425000D02*
D03*
D68*
X735000Y6084993D02*
D03*
Y5894994D02*
D03*
X935000Y5989993D02*
D03*
X1075280Y6084709D02*
D03*
Y5894709D02*
D03*
X1275280Y5989709D02*
D03*
X1415000Y6084993D02*
D03*
Y5894994D02*
D03*
X1615001Y5989993D02*
D03*
X1755000Y6084993D02*
D03*
Y5894994D02*
D03*
X1955000Y5989993D02*
D03*
X5817500Y6997500D02*
D03*
Y6817500D02*
D03*
X6017500Y6907500D02*
D03*
X5817500Y7391999D02*
D03*
Y7212000D02*
D03*
X6017501Y7301999D02*
D03*
X5817500Y6207500D02*
D03*
Y6027500D02*
D03*
X6017501Y6117500D02*
D03*
X5817500Y6603000D02*
D03*
Y6423000D02*
D03*
X6017501Y6513000D02*
D03*
X5817500Y7804500D02*
D03*
Y7624500D02*
D03*
X6017501Y7714500D02*
D03*
X5817500Y8211500D02*
D03*
Y8031500D02*
D03*
X6017500Y8121500D02*
D03*
X5890001Y1860500D02*
D03*
Y1680500D02*
D03*
X6090001Y1770500D02*
D03*
X5890001Y2287000D02*
D03*
Y2107000D02*
D03*
X6090001Y2197000D02*
D03*
X5890000Y3566501D02*
D03*
Y3386501D02*
D03*
X6090001Y3476501D02*
D03*
X5890000Y3993000D02*
D03*
Y3813000D02*
D03*
X6090001Y3903000D02*
D03*
X5890000Y2713500D02*
D03*
Y2533500D02*
D03*
X6090001Y2623500D02*
D03*
X5890000Y3140000D02*
D03*
Y2960000D02*
D03*
X6090001Y3050000D02*
D03*
D69*
X2097501Y2075001D02*
D03*
Y1210000D02*
D03*
X1512500D02*
D03*
Y2075001D02*
D03*
D70*
X2097501Y1675000D02*
D03*
Y1610000D02*
D03*
Y1545000D02*
D03*
Y1480000D02*
D03*
Y1284999D02*
D03*
Y1350000D02*
D03*
Y1415000D02*
D03*
X1512500D02*
D03*
Y1350000D02*
D03*
Y1284999D02*
D03*
Y1480000D02*
D03*
Y1545000D02*
D03*
Y1610000D02*
D03*
Y1675000D02*
D03*
Y1870001D02*
D03*
Y1935001D02*
D03*
Y2000001D02*
D03*
Y1805000D02*
D03*
Y1740000D02*
D03*
X2097501D02*
D03*
Y1805000D02*
D03*
Y2000001D02*
D03*
Y1935001D02*
D03*
Y1870001D02*
D03*
D71*
X5292500Y5542500D02*
D03*
Y5142500D02*
D03*
D72*
X3210000Y5720000D02*
D03*
Y5670000D02*
D03*
Y5620000D02*
D03*
Y5570000D02*
D03*
Y5520000D02*
D03*
Y5470000D02*
D03*
Y5420000D02*
D03*
Y5370000D02*
D03*
Y5320000D02*
D03*
Y5270000D02*
D03*
Y5220000D02*
D03*
Y5170000D02*
D03*
Y5120000D02*
D03*
Y5070000D02*
D03*
Y5020000D02*
D03*
Y4970000D02*
D03*
X4375000D02*
D03*
Y5020000D02*
D03*
Y5070000D02*
D03*
Y5120000D02*
D03*
Y5170000D02*
D03*
Y5220000D02*
D03*
Y5270000D02*
D03*
Y5320000D02*
D03*
Y5370000D02*
D03*
Y5420000D02*
D03*
Y5470000D02*
D03*
Y5520000D02*
D03*
Y5570000D02*
D03*
Y5620000D02*
D03*
Y5670000D02*
D03*
Y5720000D02*
D03*
D73*
X3417500Y4762500D02*
D03*
X3467500D02*
D03*
X3517500D02*
D03*
X3567500D02*
D03*
X3617500D02*
D03*
X3667500D02*
D03*
X3717500D02*
D03*
X3767500D02*
D03*
X3817500D02*
D03*
X3867500D02*
D03*
X3917500D02*
D03*
X3967500D02*
D03*
X4017500D02*
D03*
X4067500D02*
D03*
X4117500D02*
D03*
X4167500D02*
D03*
Y5927500D02*
D03*
X4117500D02*
D03*
X4067500D02*
D03*
X4017500D02*
D03*
X3967500D02*
D03*
X3917500D02*
D03*
X3867500D02*
D03*
X3817500D02*
D03*
X3767500D02*
D03*
X3717500D02*
D03*
X3667500D02*
D03*
X3617500D02*
D03*
X3567500D02*
D03*
X3517500D02*
D03*
X3467500D02*
D03*
X3417500D02*
D03*
D74*
X2612500Y3897500D02*
D03*
Y4024500D02*
D03*
Y4151500D02*
D03*
Y4278500D02*
D03*
X2052500Y3897500D02*
D03*
Y4024500D02*
D03*
Y4151500D02*
D03*
Y4278500D02*
D03*
X2610000Y3239500D02*
D03*
Y3366500D02*
D03*
Y3493500D02*
D03*
Y3620500D02*
D03*
X2050000Y3239500D02*
D03*
Y3366500D02*
D03*
Y3493500D02*
D03*
Y3620500D02*
D03*
%TF.MD5,0395d7069bfe80c09c07d56ae7e7d0bb*%
M02*
