%TF.GenerationSoftware,Altium Limited,Altium Designer,19.1.8 (144)*%
G04 Layer_Color=65535*
%FSLAX45Y45*%
%MOMM*%
%TF.FileFunction,Legend,Top*%
%TF.Part,Single*%
G01*
G75*
%TA.AperFunction,NonConductor*%
%ADD53C,0.25000*%
%ADD54C,0.50000*%
%ADD55C,0.60000*%
%ADD56C,0.25400*%
%ADD57C,0.20000*%
%ADD58C,0.12700*%
%ADD59C,0.15240*%
D53*
X1262443Y8529941D02*
G03*
X1262443Y8529941I-12500J0D01*
G01*
X4159629Y9647663D02*
G03*
X4159629Y9647663I-12500J0D01*
G01*
X747500Y6179993D02*
G03*
X747500Y6179993I-12500J0D01*
G01*
X1087780Y6179709D02*
G03*
X1087780Y6179709I-12500J0D01*
G01*
X1427501Y6179993D02*
G03*
X1427501Y6179993I-12500J0D01*
G01*
X1767500D02*
G03*
X1767500Y6179993I-12500J0D01*
G01*
X5830000Y7092500D02*
G03*
X5830000Y7092500I-12500J0D01*
G01*
X5830001Y7487000D02*
G03*
X5830001Y7487000I-12500J0D01*
G01*
Y6302500D02*
G03*
X5830001Y6302500I-12500J0D01*
G01*
Y6698000D02*
G03*
X5830001Y6698000I-12500J0D01*
G01*
Y7899500D02*
G03*
X5830001Y7899500I-12500J0D01*
G01*
X5830000Y8306500D02*
G03*
X5830000Y8306500I-12500J0D01*
G01*
X1525001Y2160001D02*
G03*
X1525001Y2160001I-12500J0D01*
G01*
X5600000Y5777500D02*
G03*
X5600000Y5777500I-12500J0D01*
G01*
X3222500Y5792500D02*
G03*
X3222500Y5792500I-12500J0D01*
G01*
X5902501Y1955500D02*
G03*
X5902501Y1955500I-12500J0D01*
G01*
Y2382000D02*
G03*
X5902501Y2382000I-12500J0D01*
G01*
X5902501Y3661501D02*
G03*
X5902501Y3661501I-12500J0D01*
G01*
Y4088000D02*
G03*
X5902501Y4088000I-12500J0D01*
G01*
Y2808500D02*
G03*
X5902501Y2808500I-12500J0D01*
G01*
Y3235000D02*
G03*
X5902501Y3235000I-12500J0D01*
G01*
X2625000Y3810000D02*
G03*
X2625000Y3810000I-12500J0D01*
G01*
X2622500Y3152000D02*
G03*
X2622500Y3152000I-12500J0D01*
G01*
D54*
X4943470Y6872742D02*
G03*
X4942500Y6871500I-970J-243D01*
G01*
D55*
X3462500Y5705000D02*
G03*
X3462500Y5705000I-30000J0D01*
G01*
X2417500Y3943000D02*
G03*
X2417500Y3943000I-30000J0D01*
G01*
X2415000Y3285000D02*
G03*
X2415000Y3285000I-30000J0D01*
G01*
D56*
X4461500Y7350000D02*
X4612500Y7501000D01*
X3572500Y7350000D02*
X4461500D01*
Y8390000D02*
X4612500Y8239000D01*
X3572500Y8390000D02*
X4461500D01*
X6350000Y6000000D02*
Y8350000D01*
X6075000D02*
X6350000D01*
X6075000D02*
Y9125000D01*
X4950000Y7400000D02*
Y8025000D01*
X4800000Y7400000D02*
X4950000D01*
X4175000Y6450000D02*
X4925000D01*
Y6600000D01*
X4975000D01*
Y6075000D02*
Y6600000D01*
X6425000Y1450000D02*
Y3975000D01*
X6100000Y1450000D02*
X6425000D01*
X6100000Y800000D02*
Y1450000D01*
X4780000Y9240000D02*
X6067500D01*
X1192500Y975000D02*
X1662500D01*
X1192500D02*
Y2800000D01*
X450000Y5725000D02*
X647500D01*
X445000Y4495000D02*
X450000Y5725000D01*
X4175000Y7275000D02*
X4800000D01*
Y7400000D01*
X3345000Y8820000D02*
X4225000Y8817500D01*
X4712500Y8477500D02*
Y9045000D01*
X4045000Y8477500D02*
X4712500D01*
X3381300Y8098575D02*
X3482867D01*
X4702100Y8111283D02*
X4803667D01*
X4752883Y8162067D02*
Y8060500D01*
D57*
X1367443Y8489941D02*
X1597443D01*
X1367443Y8074941D02*
X1597443D01*
X6779500Y3368000D02*
Y4384000D01*
X6525500D02*
X6779500D01*
X6525500Y3368000D02*
X6779500D01*
X6525500D02*
Y4384000D01*
X6779500Y828000D02*
Y1844000D01*
X6525500D02*
X6779500D01*
X6525500Y828000D02*
X6779500D01*
X6525500D02*
Y1844000D01*
X6779500Y2098000D02*
Y3114000D01*
X6525500D02*
X6779500D01*
X6525500Y2098000D02*
X6779500D01*
X6525500D02*
Y3114000D01*
X4264629Y9192663D02*
X4494629D01*
X4264629Y9607663D02*
X4494629D01*
X1334500Y3770500D02*
Y4532500D01*
X1080500D02*
X1334500D01*
X1080500Y3770500D02*
Y4532500D01*
Y3770500D02*
X1334500D01*
Y2985500D02*
Y3747500D01*
X1080500D02*
X1334500D01*
X1080500Y2985500D02*
Y3747500D01*
Y2985500D02*
X1334500D01*
X987500Y4950500D02*
X2003500D01*
X987500Y5458500D02*
X2003500D01*
X987500Y4950500D02*
Y5458500D01*
X2003500Y4950500D02*
Y5458500D01*
X818500Y6135993D02*
X900000D01*
Y6069993D02*
Y6135993D01*
X818500Y5843993D02*
X900000D01*
Y5909994D01*
X1158779Y6135709D02*
X1240279D01*
Y6069709D02*
Y6135709D01*
X1158779Y5843709D02*
X1240279D01*
Y5909709D01*
X1498500Y6135993D02*
X1580000D01*
Y6069993D02*
Y6135993D01*
X1498500Y5843993D02*
X1580000D01*
Y5909994D01*
X1838500Y6135993D02*
X1920000D01*
Y6069993D02*
Y6135993D01*
X1838500Y5843993D02*
X1920000D01*
Y5909994D01*
X5887500Y7057500D02*
X5987500D01*
Y6987500D02*
Y7057500D01*
X5887500Y6757500D02*
X5987500D01*
Y6827500D01*
X5887501Y7451999D02*
X5987500D01*
Y7381999D02*
Y7451999D01*
X5887501Y7151999D02*
X5987500D01*
Y7222000D01*
X5887501Y6267500D02*
X5987500D01*
Y6197500D02*
Y6267500D01*
X5887501Y5967500D02*
X5987500D01*
Y6037500D01*
X5887501Y6663000D02*
X5987500D01*
Y6593000D02*
Y6663000D01*
X5887501Y6363000D02*
X5987500D01*
Y6433000D01*
X5887501Y7864500D02*
X5987500D01*
Y7794500D02*
Y7864500D01*
X5887501Y7564500D02*
X5987500D01*
Y7634500D01*
X5887500Y8271500D02*
X5987500D01*
Y8201500D02*
Y8271500D01*
X5887500Y7971500D02*
X5987500D01*
Y8041500D01*
X1609050Y2132500D02*
X2000950D01*
X1609050Y1152500D02*
X2000950D01*
X5832100Y5253000D02*
X6252500D01*
X5832100Y5852000D02*
X6252500D01*
X6342000Y5442500D02*
Y5665400D01*
X5743000Y5439600D02*
Y5665400D01*
X3332500Y4885000D02*
Y5805000D01*
X4252500Y4885000D02*
Y5805000D01*
X3332500D02*
X4252500D01*
X3332500Y4885000D02*
X4252500D01*
X2289000Y9681000D02*
X2543000D01*
Y9173000D02*
Y9681000D01*
X2289000Y9173000D02*
X2543000D01*
X2289000D02*
Y9681000D01*
X1273000D02*
X1527000D01*
Y9173000D02*
Y9681000D01*
X1273000Y9173000D02*
X1527000D01*
X1273000D02*
Y9681000D01*
X5960001Y1920500D02*
X6060001D01*
Y1850500D02*
Y1920500D01*
X5960001Y1620500D02*
X6060001D01*
Y1690500D01*
X5960001Y2347000D02*
X6060001D01*
Y2277000D02*
Y2347000D01*
X5960001Y2047000D02*
X6060001D01*
Y2117000D01*
X5960001Y3626500D02*
X6060000D01*
Y3556501D02*
Y3626500D01*
X5960001Y3326501D02*
X6060000D01*
Y3396501D01*
X5960001Y4053000D02*
X6060000D01*
Y3983000D02*
Y4053000D01*
X5960001Y3753000D02*
X6060000D01*
Y3823000D01*
X5960001Y2773500D02*
X6060000D01*
Y2703500D02*
Y2773500D01*
X5960001Y2473500D02*
X6060000D01*
Y2543500D01*
X5960001Y3200000D02*
X6060000D01*
Y3130000D02*
Y3200000D01*
X5960001Y2900000D02*
X6060000D01*
Y2970000D01*
X6525500Y6060500D02*
X6779500D01*
X6525500D02*
Y8092500D01*
X6779500D01*
Y6060500D02*
Y8092500D01*
X6525500Y4524000D02*
X6779500D01*
X6525500D02*
Y5032000D01*
X6779500D01*
Y4524000D02*
Y5032000D01*
X676000Y3895500D02*
Y4149500D01*
X168000Y3895500D02*
X676000D01*
X168000D02*
Y4149500D01*
X676000D01*
X6210500Y4521500D02*
X6464500D01*
X6210500D02*
Y5029500D01*
X6464500D01*
Y4521500D02*
Y5029500D01*
X162500Y3563714D02*
X924500D01*
Y3817714D01*
X162500D02*
X924500D01*
X162500Y3563714D02*
Y3817714D01*
Y3220857D02*
X924500D01*
Y3474857D01*
X162500D02*
X924500D01*
X162500Y3220857D02*
Y3474857D01*
X4075000Y691000D02*
Y3040500D01*
Y3231000D01*
X3821000D02*
X4075000D01*
X3821000Y691000D02*
Y3231000D01*
Y691000D02*
X4075000D01*
X162500Y2878000D02*
X924500D01*
Y3132000D01*
X162500D02*
X924500D01*
X162500Y2878000D02*
Y3132000D01*
Y2535143D02*
X924500D01*
Y2789143D01*
X162500D02*
X924500D01*
X162500Y2535143D02*
Y2789143D01*
Y2192286D02*
X924500D01*
Y2446286D01*
X162500D02*
X924500D01*
X162500Y2192286D02*
Y2446286D01*
Y1849429D02*
X924500D01*
Y2103429D01*
X162500D02*
X924500D01*
X162500Y1849429D02*
Y2103429D01*
X661000Y6479000D02*
Y6987000D01*
X3709000Y6479000D02*
Y6987000D01*
X661000Y6479000D02*
X3709000D01*
X661000Y6987000D02*
X3709000D01*
X162500Y1506572D02*
X924500D01*
Y1760572D01*
X162500D02*
X924500D01*
X162500Y1506572D02*
Y1760572D01*
Y1163714D02*
X924500D01*
Y1417714D01*
X162500D02*
X924500D01*
X162500Y1163714D02*
Y1417714D01*
X3059000Y2723000D02*
X3313000D01*
Y691000D02*
Y2723000D01*
X3059000Y691000D02*
X3313000D01*
X3059000D02*
Y2723000D01*
X2487500Y3843000D02*
Y4333000D01*
X2177500Y3843000D02*
Y4333000D01*
Y3843000D02*
X2487500D01*
X2177500Y4333000D02*
X2487500D01*
X2485000Y3185000D02*
Y3675000D01*
X2175000Y3185000D02*
Y3675000D01*
Y3185000D02*
X2485000D01*
X2175000Y3675000D02*
X2485000D01*
D58*
X5190900Y5342500D02*
X5241700D01*
Y5317100D02*
Y5342500D01*
Y5367900D01*
X5317900Y5291700D02*
Y5393300D01*
X5267100D02*
X5317900D01*
X5267100Y5291700D02*
Y5393300D01*
Y5291700D02*
X5317900D01*
X5343300Y5317100D02*
Y5342500D01*
Y5367900D01*
Y5342500D02*
X5394100D01*
D59*
X6625000Y8800000D02*
Y8881254D01*
X6665627D01*
X6679169Y8867711D01*
Y8840627D01*
X6665627Y8827084D01*
X6625000D01*
X6652085D02*
X6679169Y8800000D01*
X6760423D02*
X6706254D01*
X6760423Y8854169D01*
Y8867711D01*
X6746881Y8881254D01*
X6719796D01*
X6706254Y8867711D01*
X6787508Y8881254D02*
X6841677D01*
Y8867711D01*
X6787508Y8813542D01*
Y8800000D01*
X6150000Y8799999D02*
Y8881253D01*
X6190627D01*
X6204169Y8867710D01*
Y8840626D01*
X6190627Y8827084D01*
X6150000D01*
X6177085D02*
X6204169Y8799999D01*
X6285423D02*
X6231254D01*
X6285423Y8854168D01*
Y8867710D01*
X6271881Y8881253D01*
X6244796D01*
X6231254Y8867710D01*
X6366677Y8881253D02*
X6339592Y8867710D01*
X6312508Y8840626D01*
Y8813541D01*
X6326050Y8799999D01*
X6353135D01*
X6366677Y8813541D01*
Y8827084D01*
X6353135Y8840626D01*
X6312508D01*
X5921669Y9477711D02*
X5908127Y9491254D01*
X5881042D01*
X5867500Y9477711D01*
Y9423542D01*
X5881042Y9410000D01*
X5908127D01*
X5921669Y9423542D01*
X5989381Y9410000D02*
Y9491254D01*
X5948754Y9450627D01*
X6002923D01*
X6030008Y9410000D02*
X6057092D01*
X6043550D01*
Y9491254D01*
X6030008Y9477711D01*
X5867500Y9534640D02*
Y9615894D01*
X5908127D01*
X5921669Y9602351D01*
Y9575267D01*
X5908127Y9561724D01*
X5867500D01*
X5894585D02*
X5921669Y9534640D01*
X5948754Y9602351D02*
X5962296Y9615894D01*
X5989381D01*
X6002923Y9602351D01*
Y9588809D01*
X5989381Y9575267D01*
X6002923Y9561724D01*
Y9548182D01*
X5989381Y9534640D01*
X5962296D01*
X5948754Y9548182D01*
Y9561724D01*
X5962296Y9575267D01*
X5948754Y9588809D01*
Y9602351D01*
X5962296Y9575267D02*
X5989381D01*
X6030008Y9602351D02*
X6043550Y9615894D01*
X6070635D01*
X6084177Y9602351D01*
Y9548182D01*
X6070635Y9534640D01*
X6043550D01*
X6030008Y9548182D01*
Y9602351D01*
X1475000Y8646254D02*
Y8578542D01*
X1488542Y8565000D01*
X1515627D01*
X1529169Y8578542D01*
Y8646254D01*
X1610423D02*
X1583338Y8632711D01*
X1556254Y8605627D01*
Y8578542D01*
X1569796Y8565000D01*
X1596881D01*
X1610423Y8578542D01*
Y8592084D01*
X1596881Y8605627D01*
X1556254D01*
X1410729Y7102731D02*
X1397187Y7116274D01*
X1370102D01*
X1356560Y7102731D01*
Y7048562D01*
X1370102Y7035020D01*
X1397187D01*
X1410729Y7048562D01*
X1478441Y7035020D02*
Y7116274D01*
X1437814Y7075647D01*
X1491983D01*
X1573237Y7116274D02*
X1546152Y7102731D01*
X1519068Y7075647D01*
Y7048562D01*
X1532610Y7035020D01*
X1559695D01*
X1573237Y7048562D01*
Y7062104D01*
X1559695Y7075647D01*
X1519068D01*
X1409169Y7355211D02*
X1395627Y7368754D01*
X1368542D01*
X1355000Y7355211D01*
Y7301042D01*
X1368542Y7287500D01*
X1395627D01*
X1409169Y7301042D01*
X1476881Y7287500D02*
Y7368754D01*
X1436254Y7328127D01*
X1490423D01*
X1558135Y7287500D02*
Y7368754D01*
X1517508Y7328127D01*
X1571677D01*
X1409169Y7225211D02*
X1395627Y7238754D01*
X1368542D01*
X1355000Y7225211D01*
Y7171042D01*
X1368542Y7157500D01*
X1395627D01*
X1409169Y7171042D01*
X1476881Y7157500D02*
Y7238754D01*
X1436254Y7198127D01*
X1490423D01*
X1571677Y7238754D02*
X1517508D01*
Y7198127D01*
X1544592Y7211669D01*
X1558135D01*
X1571677Y7198127D01*
Y7171042D01*
X1558135Y7157500D01*
X1531050D01*
X1517508Y7171042D01*
X883680Y7477360D02*
X802426D01*
Y7517987D01*
X815969Y7531529D01*
X843053D01*
X856595Y7517987D01*
Y7477360D01*
Y7504444D02*
X883680Y7531529D01*
X870138Y7558614D02*
X883680Y7572156D01*
Y7599241D01*
X870138Y7612783D01*
X815969D01*
X802426Y7599241D01*
Y7572156D01*
X815969Y7558614D01*
X829511D01*
X843053Y7572156D01*
Y7612783D01*
X815969Y7639868D02*
X802426Y7653410D01*
Y7680494D01*
X815969Y7694037D01*
X829511D01*
X843053Y7680494D01*
Y7666952D01*
Y7680494D01*
X856595Y7694037D01*
X870138D01*
X883680Y7680494D01*
Y7653410D01*
X870138Y7639868D01*
X1043700Y7477360D02*
X962446D01*
Y7517987D01*
X975989Y7531529D01*
X1003073D01*
X1016615Y7517987D01*
Y7477360D01*
Y7504444D02*
X1043700Y7531529D01*
X1030158Y7558614D02*
X1043700Y7572156D01*
Y7599241D01*
X1030158Y7612783D01*
X975989D01*
X962446Y7599241D01*
Y7572156D01*
X975989Y7558614D01*
X989531D01*
X1003073Y7572156D01*
Y7612783D01*
X1043700Y7680494D02*
X962446D01*
X1003073Y7639868D01*
Y7694037D01*
X1201180Y7477360D02*
X1119926D01*
Y7517987D01*
X1133469Y7531529D01*
X1160553D01*
X1174095Y7517987D01*
Y7477360D01*
Y7504444D02*
X1201180Y7531529D01*
X1187638Y7558614D02*
X1201180Y7572156D01*
Y7599241D01*
X1187638Y7612783D01*
X1133469D01*
X1119926Y7599241D01*
Y7572156D01*
X1133469Y7558614D01*
X1147011D01*
X1160553Y7572156D01*
Y7612783D01*
X1119926Y7639868D02*
Y7694037D01*
X1133469D01*
X1187638Y7639868D01*
X1201180D01*
X570000Y7725000D02*
Y7806254D01*
X610627D01*
X624169Y7792711D01*
Y7765627D01*
X610627Y7752085D01*
X570000D01*
X597084D02*
X624169Y7725000D01*
X651254Y7738542D02*
X664796Y7725000D01*
X691881D01*
X705423Y7738542D01*
Y7792711D01*
X691881Y7806254D01*
X664796D01*
X651254Y7792711D01*
Y7779169D01*
X664796Y7765627D01*
X705423D01*
X786677Y7806254D02*
X732508D01*
Y7765627D01*
X759592Y7779169D01*
X773134D01*
X786677Y7765627D01*
Y7738542D01*
X773134Y7725000D01*
X746050D01*
X732508Y7738542D01*
X932529Y8996489D02*
X918986Y8982947D01*
Y8955862D01*
X932529Y8942320D01*
X986698D01*
X1000240Y8955862D01*
Y8982947D01*
X986698Y8996489D01*
X918986Y9077743D02*
Y9023574D01*
X959613D01*
X946071Y9050658D01*
Y9064201D01*
X959613Y9077743D01*
X986698D01*
X1000240Y9064201D01*
Y9037116D01*
X986698Y9023574D01*
X918986Y9158997D02*
Y9104828D01*
X959613D01*
X946071Y9131912D01*
Y9145454D01*
X959613Y9158997D01*
X986698D01*
X1000240Y9145454D01*
Y9118370D01*
X986698Y9104828D01*
X824980Y8942320D02*
X743726D01*
Y8982947D01*
X757269Y8996489D01*
X784353D01*
X797896Y8982947D01*
Y8942320D01*
Y8969404D02*
X824980Y8996489D01*
X811438Y9023574D02*
X824980Y9037116D01*
Y9064201D01*
X811438Y9077743D01*
X757269D01*
X743726Y9064201D01*
Y9037116D01*
X757269Y9023574D01*
X770811D01*
X784353Y9037116D01*
Y9077743D01*
X757269Y9104828D02*
X743726Y9118370D01*
Y9145454D01*
X757269Y9158997D01*
X811438D01*
X824980Y9145454D01*
Y9118370D01*
X811438Y9104828D01*
X757269D01*
X654800Y8942320D02*
X573546D01*
Y8982947D01*
X587089Y8996489D01*
X614173D01*
X627716Y8982947D01*
Y8942320D01*
Y8969404D02*
X654800Y8996489D01*
X641258Y9023574D02*
X654800Y9037116D01*
Y9064201D01*
X641258Y9077743D01*
X587089D01*
X573546Y9064201D01*
Y9037116D01*
X587089Y9023574D01*
X600631D01*
X614173Y9037116D01*
Y9077743D01*
X654800Y9104828D02*
Y9131912D01*
Y9118370D01*
X573546D01*
X587089Y9104828D01*
X479540Y8942320D02*
X398286D01*
Y8982947D01*
X411829Y8996489D01*
X438913D01*
X452456Y8982947D01*
Y8942320D01*
Y8969404D02*
X479540Y8996489D01*
X465998Y9023574D02*
X479540Y9037116D01*
Y9064201D01*
X465998Y9077743D01*
X411829D01*
X398286Y9064201D01*
Y9037116D01*
X411829Y9023574D01*
X425371D01*
X438913Y9037116D01*
Y9077743D01*
X479540Y9158997D02*
Y9104828D01*
X425371Y9158997D01*
X411829D01*
X398286Y9145454D01*
Y9118370D01*
X411829Y9104828D01*
X654800Y8684940D02*
X573546D01*
Y8725567D01*
X587089Y8739109D01*
X614173D01*
X627716Y8725567D01*
Y8684940D01*
Y8712024D02*
X654800Y8739109D01*
X641258Y8766194D02*
X654800Y8779736D01*
Y8806821D01*
X641258Y8820363D01*
X587089D01*
X573546Y8806821D01*
Y8779736D01*
X587089Y8766194D01*
X600631D01*
X614173Y8779736D01*
Y8820363D01*
X573546Y8901617D02*
X587089Y8874532D01*
X614173Y8847448D01*
X641258D01*
X654800Y8860990D01*
Y8888074D01*
X641258Y8901617D01*
X627716D01*
X614173Y8888074D01*
Y8847448D01*
X754729Y8739109D02*
X741186Y8725567D01*
Y8698482D01*
X754729Y8684940D01*
X808898D01*
X822440Y8698482D01*
Y8725567D01*
X808898Y8739109D01*
X741186Y8820363D02*
Y8766194D01*
X781813D01*
X768271Y8793278D01*
Y8806821D01*
X781813Y8820363D01*
X808898D01*
X822440Y8806821D01*
Y8779736D01*
X808898Y8766194D01*
X822440Y8847448D02*
Y8874532D01*
Y8860990D01*
X741186D01*
X754729Y8847448D01*
X932529Y8739109D02*
X918986Y8725567D01*
Y8698482D01*
X932529Y8684940D01*
X986698D01*
X1000240Y8698482D01*
Y8725567D01*
X986698Y8739109D01*
X918986Y8820363D02*
Y8766194D01*
X959613D01*
X946071Y8793278D01*
Y8806821D01*
X959613Y8820363D01*
X986698D01*
X1000240Y8806821D01*
Y8779736D01*
X986698Y8766194D01*
X1000240Y8901617D02*
Y8847448D01*
X946071Y8901617D01*
X932529D01*
X918986Y8888074D01*
Y8860990D01*
X932529Y8847448D01*
X2037500Y7383754D02*
Y7302500D01*
X2091669D01*
X2172923D02*
X2118754D01*
X2172923Y7356669D01*
Y7370211D01*
X2159381Y7383754D01*
X2132296D01*
X2118754Y7370211D01*
X1941669Y8868928D02*
X1928127Y8882470D01*
X1901042D01*
X1887500Y8868928D01*
Y8814759D01*
X1901042Y8801217D01*
X1928127D01*
X1941669Y8814759D01*
X2022923Y8882470D02*
X1968754D01*
Y8841843D01*
X1995838Y8855386D01*
X2009381D01*
X2022923Y8841843D01*
Y8814759D01*
X2009381Y8801217D01*
X1982296D01*
X1968754Y8814759D01*
X2050008Y8868928D02*
X2063550Y8882470D01*
X2090634D01*
X2104177Y8868928D01*
Y8855386D01*
X2090634Y8841843D01*
X2077092D01*
X2090634D01*
X2104177Y8828301D01*
Y8814759D01*
X2090634Y8801217D01*
X2063550D01*
X2050008Y8814759D01*
X1887500Y8932500D02*
Y9013754D01*
X1928127D01*
X1941669Y9000211D01*
Y8973127D01*
X1928127Y8959584D01*
X1887500D01*
X1914584D02*
X1941669Y8932500D01*
X1968754Y9000211D02*
X1982296Y9013754D01*
X2009381D01*
X2022923Y9000211D01*
Y8986669D01*
X2009381Y8973127D01*
X2022923Y8959584D01*
Y8946042D01*
X2009381Y8932500D01*
X1982296D01*
X1968754Y8946042D01*
Y8959584D01*
X1982296Y8973127D01*
X1968754Y8986669D01*
Y9000211D01*
X1982296Y8973127D02*
X2009381D01*
X2050008Y8946042D02*
X2063550Y8932500D01*
X2090634D01*
X2104177Y8946042D01*
Y9000211D01*
X2090634Y9013754D01*
X2063550D01*
X2050008Y9000211D01*
Y8986669D01*
X2063550Y8973127D01*
X2104177D01*
X2778889Y8638689D02*
X2765346Y8625147D01*
Y8598062D01*
X2778889Y8584520D01*
X2833058D01*
X2846600Y8598062D01*
Y8625147D01*
X2833058Y8638689D01*
X2846600Y8706400D02*
X2765346D01*
X2805973Y8665774D01*
Y8719943D01*
X2765346Y8747027D02*
Y8801197D01*
X2778889D01*
X2833058Y8747027D01*
X2846600D01*
X2618869Y8638689D02*
X2605326Y8625147D01*
Y8598062D01*
X2618869Y8584520D01*
X2673038D01*
X2686580Y8598062D01*
Y8625147D01*
X2673038Y8638689D01*
X2686580Y8706400D02*
X2605326D01*
X2645953Y8665774D01*
Y8719943D01*
X2618869Y8747027D02*
X2605326Y8760570D01*
Y8787654D01*
X2618869Y8801197D01*
X2632411D01*
X2645953Y8787654D01*
X2659496Y8801197D01*
X2673038D01*
X2686580Y8787654D01*
Y8760570D01*
X2673038Y8747027D01*
X2659496D01*
X2645953Y8760570D01*
X2632411Y8747027D01*
X2618869D01*
X2645953Y8760570D02*
Y8787654D01*
X2458849Y8638689D02*
X2445306Y8625147D01*
Y8598062D01*
X2458849Y8584520D01*
X2513018D01*
X2526560Y8598062D01*
Y8625147D01*
X2513018Y8638689D01*
X2526560Y8706400D02*
X2445306D01*
X2485933Y8665774D01*
Y8719943D01*
X2513018Y8747027D02*
X2526560Y8760570D01*
Y8787654D01*
X2513018Y8801197D01*
X2458849D01*
X2445306Y8787654D01*
Y8760570D01*
X2458849Y8747027D01*
X2472391D01*
X2485933Y8760570D01*
Y8801197D01*
X2296289Y8638689D02*
X2282746Y8625147D01*
Y8598062D01*
X2296289Y8584520D01*
X2350458D01*
X2364000Y8598062D01*
Y8625147D01*
X2350458Y8638689D01*
X2282746Y8719943D02*
Y8665774D01*
X2323373D01*
X2309831Y8692858D01*
Y8706400D01*
X2323373Y8719943D01*
X2350458D01*
X2364000Y8706400D01*
Y8679316D01*
X2350458Y8665774D01*
X2296289Y8747027D02*
X2282746Y8760570D01*
Y8787654D01*
X2296289Y8801197D01*
X2350458D01*
X2364000Y8787654D01*
Y8760570D01*
X2350458Y8747027D01*
X2296289D01*
X4973709Y4931931D02*
X4960167Y4945474D01*
X4933082D01*
X4919540Y4931931D01*
Y4877762D01*
X4933082Y4864220D01*
X4960167D01*
X4973709Y4877762D01*
X5000794Y4864220D02*
X5027878D01*
X5014336D01*
Y4945474D01*
X5000794Y4931931D01*
X5068505D02*
X5082047Y4945474D01*
X5109132D01*
X5122674Y4931931D01*
Y4918389D01*
X5109132Y4904847D01*
X5095590D01*
X5109132D01*
X5122674Y4891304D01*
Y4877762D01*
X5109132Y4864220D01*
X5082047D01*
X5068505Y4877762D01*
X4973709Y5805691D02*
X4960167Y5819234D01*
X4933082D01*
X4919540Y5805691D01*
Y5751522D01*
X4933082Y5737980D01*
X4960167D01*
X4973709Y5751522D01*
X5000794Y5737980D02*
X5027878D01*
X5014336D01*
Y5819234D01*
X5000794Y5805691D01*
X5109132Y5737980D02*
Y5819234D01*
X5068505Y5778607D01*
X5122674D01*
X4658789Y5601649D02*
X4645246Y5588107D01*
Y5561022D01*
X4658789Y5547480D01*
X4712958D01*
X4726500Y5561022D01*
Y5588107D01*
X4712958Y5601649D01*
X4645246Y5628734D02*
Y5682903D01*
X4658789D01*
X4712958Y5628734D01*
X4726500D01*
X4828969Y5601649D02*
X4815426Y5588107D01*
Y5561022D01*
X4828969Y5547480D01*
X4883138D01*
X4896680Y5561022D01*
Y5588107D01*
X4883138Y5601649D01*
X4828969Y5628734D02*
X4815426Y5642276D01*
Y5669361D01*
X4828969Y5682903D01*
X4842511D01*
X4856053Y5669361D01*
X4869596Y5682903D01*
X4883138D01*
X4896680Y5669361D01*
Y5642276D01*
X4883138Y5628734D01*
X4869596D01*
X4856053Y5642276D01*
X4842511Y5628734D01*
X4828969D01*
X4856053Y5642276D02*
Y5669361D01*
X5992249Y5094491D02*
X5978707Y5108034D01*
X5951622D01*
X5938080Y5094491D01*
Y5040322D01*
X5951622Y5026780D01*
X5978707D01*
X5992249Y5040322D01*
X6059961Y5026780D02*
Y5108034D01*
X6019334Y5067407D01*
X6073503D01*
X5938080Y4711820D02*
Y4793074D01*
X5978707D01*
X5992249Y4779531D01*
Y4752447D01*
X5978707Y4738904D01*
X5938080D01*
X5965165D02*
X5992249Y4711820D01*
X6019334D02*
X6046418D01*
X6032876D01*
Y4793074D01*
X6019334Y4779531D01*
X6127672Y4711820D02*
Y4793074D01*
X6087045Y4752447D01*
X6141214D01*
X5938080Y4869300D02*
Y4950554D01*
X5978707D01*
X5992249Y4937011D01*
Y4909927D01*
X5978707Y4896384D01*
X5938080D01*
X5965165D02*
X5992249Y4869300D01*
X6019334D02*
X6046418D01*
X6032876D01*
Y4950554D01*
X6019334Y4937011D01*
X6141214Y4950554D02*
X6087045D01*
Y4909927D01*
X6114130Y4923469D01*
X6127672D01*
X6141214Y4909927D01*
Y4882842D01*
X6127672Y4869300D01*
X6100587D01*
X6087045Y4882842D01*
X6267500Y4240000D02*
Y4321254D01*
X6308127D01*
X6321669Y4307711D01*
Y4280627D01*
X6308127Y4267084D01*
X6267500D01*
X6348754Y4240000D02*
X6375838D01*
X6362296D01*
Y4321254D01*
X6348754Y4307711D01*
X6416465D02*
X6430007Y4321254D01*
X6457092D01*
X6470634Y4307711D01*
Y4294169D01*
X6457092Y4280627D01*
X6443550D01*
X6457092D01*
X6470634Y4267084D01*
Y4253542D01*
X6457092Y4240000D01*
X6430007D01*
X6416465Y4253542D01*
X5835000Y898000D02*
Y979254D01*
X5875627D01*
X5889169Y965711D01*
Y938627D01*
X5875627Y925085D01*
X5835000D01*
X5862085D02*
X5889169Y898000D01*
X5956881D02*
Y979254D01*
X5916254Y938627D01*
X5970423D01*
X5997508Y965711D02*
X6011050Y979254D01*
X6038134D01*
X6051677Y965711D01*
Y952169D01*
X6038134Y938627D01*
X6024592D01*
X6038134D01*
X6051677Y925085D01*
Y911542D01*
X6038134Y898000D01*
X6011050D01*
X5997508Y911542D01*
X6585780Y1920360D02*
Y2001614D01*
X6626407D01*
X6639949Y1988071D01*
Y1960987D01*
X6626407Y1947444D01*
X6585780D01*
X6667034Y1933902D02*
X6680576Y1920360D01*
X6707661D01*
X6721203Y1933902D01*
Y1988071D01*
X6707661Y2001614D01*
X6680576D01*
X6667034Y1988071D01*
Y1974529D01*
X6680576Y1960987D01*
X6721203D01*
X6550220Y3190360D02*
Y3271614D01*
X6590847D01*
X6604389Y3258071D01*
Y3230987D01*
X6590847Y3217444D01*
X6550220D01*
X6631474Y3190360D02*
X6658558D01*
X6645016D01*
Y3271614D01*
X6631474Y3258071D01*
X6753354Y3271614D02*
X6699185D01*
Y3230987D01*
X6726270Y3244529D01*
X6739812D01*
X6753354Y3230987D01*
Y3203902D01*
X6739812Y3190360D01*
X6712727D01*
X6699185Y3203902D01*
X5270000Y902500D02*
Y983754D01*
X5310627D01*
X5324169Y970211D01*
Y943127D01*
X5310627Y929584D01*
X5270000D01*
X5297085D02*
X5324169Y902500D01*
X5391881D02*
Y983754D01*
X5351254Y943127D01*
X5405423D01*
X5486677Y902500D02*
X5432508D01*
X5486677Y956669D01*
Y970211D01*
X5473135Y983754D01*
X5446050D01*
X5432508Y970211D01*
X5065000Y3193754D02*
X5119169D01*
X5092085D01*
Y3112500D01*
X5146254D02*
Y3193754D01*
X5186881D01*
X5200423Y3180211D01*
Y3153127D01*
X5186881Y3139585D01*
X5146254D01*
X5227508Y3112500D02*
X5254592D01*
X5241050D01*
Y3193754D01*
X5227508Y3180211D01*
X5295219D02*
X5308761Y3193754D01*
X5335846D01*
X5349388Y3180211D01*
Y3166669D01*
X5335846Y3153127D01*
X5322304D01*
X5335846D01*
X5349388Y3139585D01*
Y3126042D01*
X5335846Y3112500D01*
X5308761D01*
X5295219Y3126042D01*
X5045000Y2768754D02*
X5099169D01*
X5072085D01*
Y2687500D01*
X5126254D02*
Y2768754D01*
X5166881D01*
X5180423Y2755211D01*
Y2728127D01*
X5166881Y2714585D01*
X5126254D01*
X5207508Y2687500D02*
X5234592D01*
X5221050D01*
Y2768754D01*
X5207508Y2755211D01*
X5315846Y2687500D02*
Y2768754D01*
X5275219Y2728127D01*
X5329388D01*
X5038920Y1811114D02*
X5093089D01*
X5066005D01*
Y1729860D01*
X5120174D02*
Y1811114D01*
X5160801D01*
X5174343Y1797571D01*
Y1770487D01*
X5160801Y1756944D01*
X5120174D01*
X5201428Y1729860D02*
X5228512D01*
X5214970D01*
Y1811114D01*
X5201428Y1797571D01*
X5269139D02*
X5282681Y1811114D01*
X5309766D01*
X5323308Y1797571D01*
Y1743402D01*
X5309766Y1729860D01*
X5282681D01*
X5269139Y1743402D01*
Y1797571D01*
X5038920Y3517994D02*
X5093089D01*
X5066005D01*
Y3436740D01*
X5120174D02*
Y3517994D01*
X5160801D01*
X5174343Y3504451D01*
Y3477367D01*
X5160801Y3463824D01*
X5120174D01*
X5201428Y3436740D02*
X5228512D01*
X5214970D01*
Y3517994D01*
X5201428Y3504451D01*
X5323308Y3436740D02*
X5269139D01*
X5323308Y3490909D01*
Y3504451D01*
X5309766Y3517994D01*
X5282681D01*
X5269139Y3504451D01*
X4684420Y2949060D02*
Y3030314D01*
X4725047D01*
X4738589Y3016771D01*
Y2989687D01*
X4725047Y2976144D01*
X4684420D01*
X4711505D02*
X4738589Y2949060D01*
X4819843D02*
X4765674D01*
X4819843Y3003229D01*
Y3016771D01*
X4806301Y3030314D01*
X4779216D01*
X4765674Y3016771D01*
X4901097Y2949060D02*
X4846928D01*
X4901097Y3003229D01*
Y3016771D01*
X4887555Y3030314D01*
X4860470D01*
X4846928Y3016771D01*
X4684420Y2778880D02*
Y2860134D01*
X4725047D01*
X4738589Y2846591D01*
Y2819507D01*
X4725047Y2805964D01*
X4684420D01*
X4711505D02*
X4738589Y2778880D01*
X4819843D02*
X4765674D01*
X4819843Y2833049D01*
Y2846591D01*
X4806301Y2860134D01*
X4779216D01*
X4765674Y2846591D01*
X4846928Y2778880D02*
X4874012D01*
X4860470D01*
Y2860134D01*
X4846928Y2846591D01*
X4684420Y2618860D02*
Y2700114D01*
X4725047D01*
X4738589Y2686571D01*
Y2659487D01*
X4725047Y2645944D01*
X4684420D01*
X4711505D02*
X4738589Y2618860D01*
X4819843D02*
X4765674D01*
X4819843Y2673029D01*
Y2686571D01*
X4806301Y2700114D01*
X4779216D01*
X4765674Y2686571D01*
X4846928D02*
X4860470Y2700114D01*
X4887555D01*
X4901097Y2686571D01*
Y2673029D01*
X4887555Y2659487D01*
X4874012D01*
X4887555D01*
X4901097Y2645944D01*
Y2632402D01*
X4887555Y2618860D01*
X4860470D01*
X4846928Y2632402D01*
X4684420Y2458840D02*
Y2540094D01*
X4725047D01*
X4738589Y2526551D01*
Y2499467D01*
X4725047Y2485924D01*
X4684420D01*
X4711505D02*
X4738589Y2458840D01*
X4819843D02*
X4765674D01*
X4819843Y2513009D01*
Y2526551D01*
X4806301Y2540094D01*
X4779216D01*
X4765674Y2526551D01*
X4887555Y2458840D02*
Y2540094D01*
X4846928Y2499467D01*
X4901097D01*
X4684420Y2298820D02*
Y2380074D01*
X4725047D01*
X4738589Y2366531D01*
Y2339447D01*
X4725047Y2325904D01*
X4684420D01*
X4711505D02*
X4738589Y2298820D01*
X4819843D02*
X4765674D01*
X4819843Y2352989D01*
Y2366531D01*
X4806301Y2380074D01*
X4779216D01*
X4765674Y2366531D01*
X4901097Y2380074D02*
X4846928D01*
Y2339447D01*
X4874012Y2352989D01*
X4887555D01*
X4901097Y2339447D01*
Y2312362D01*
X4887555Y2298820D01*
X4860470D01*
X4846928Y2312362D01*
X4684420Y1790820D02*
Y1872074D01*
X4725047D01*
X4738589Y1858531D01*
Y1831447D01*
X4725047Y1817904D01*
X4684420D01*
X4711505D02*
X4738589Y1790820D01*
X4765674D02*
X4792759D01*
X4779216D01*
Y1872074D01*
X4765674Y1858531D01*
X4887554Y1872074D02*
X4860470Y1858531D01*
X4833385Y1831447D01*
Y1804362D01*
X4846928Y1790820D01*
X4874012D01*
X4887554Y1804362D01*
Y1817904D01*
X4874012Y1831447D01*
X4833385D01*
X4684420Y1630800D02*
Y1712054D01*
X4725047D01*
X4738589Y1698511D01*
Y1671427D01*
X4725047Y1657884D01*
X4684420D01*
X4711505D02*
X4738589Y1630800D01*
X4765674D02*
X4792759D01*
X4779216D01*
Y1712054D01*
X4765674Y1698511D01*
X4833385Y1712054D02*
X4887554D01*
Y1698511D01*
X4833385Y1644342D01*
Y1630800D01*
X4684420Y1470780D02*
Y1552034D01*
X4725047D01*
X4738589Y1538491D01*
Y1511407D01*
X4725047Y1497864D01*
X4684420D01*
X4711505D02*
X4738589Y1470780D01*
X4765674D02*
X4792759D01*
X4779216D01*
Y1552034D01*
X4765674Y1538491D01*
X4833385D02*
X4846928Y1552034D01*
X4874012D01*
X4887554Y1538491D01*
Y1524949D01*
X4874012Y1511407D01*
X4887554Y1497864D01*
Y1484322D01*
X4874012Y1470780D01*
X4846928D01*
X4833385Y1484322D01*
Y1497864D01*
X4846928Y1511407D01*
X4833385Y1524949D01*
Y1538491D01*
X4846928Y1511407D02*
X4874012D01*
X4684420Y1310760D02*
Y1392014D01*
X4725047D01*
X4738589Y1378471D01*
Y1351387D01*
X4725047Y1337844D01*
X4684420D01*
X4711505D02*
X4738589Y1310760D01*
X4819843D02*
X4765674D01*
X4819843Y1364929D01*
Y1378471D01*
X4806301Y1392014D01*
X4779216D01*
X4765674Y1378471D01*
X4846928D02*
X4860470Y1392014D01*
X4887555D01*
X4901097Y1378471D01*
Y1324302D01*
X4887555Y1310760D01*
X4860470D01*
X4846928Y1324302D01*
Y1378471D01*
X4684420Y1143120D02*
Y1224374D01*
X4725047D01*
X4738589Y1210831D01*
Y1183747D01*
X4725047Y1170204D01*
X4684420D01*
X4711505D02*
X4738589Y1143120D01*
X4765674D02*
X4792759D01*
X4779216D01*
Y1224374D01*
X4765674Y1210831D01*
X4833385Y1156662D02*
X4846928Y1143120D01*
X4874012D01*
X4887554Y1156662D01*
Y1210831D01*
X4874012Y1224374D01*
X4846928D01*
X4833385Y1210831D01*
Y1197289D01*
X4846928Y1183747D01*
X4887554D01*
X241589Y4561771D02*
X228047Y4575314D01*
X200963D01*
X187420Y4561771D01*
Y4507602D01*
X200963Y4494060D01*
X228047D01*
X241589Y4507602D01*
X268674Y4494060D02*
X295759D01*
X282216D01*
Y4575314D01*
X268674Y4561771D01*
X336385Y4507602D02*
X349928Y4494060D01*
X377012D01*
X390554Y4507602D01*
Y4561771D01*
X377012Y4575314D01*
X349928D01*
X336385Y4561771D01*
Y4548229D01*
X349928Y4534687D01*
X390554D01*
X187420Y4661700D02*
Y4742954D01*
X228047D01*
X241589Y4729411D01*
Y4702327D01*
X228047Y4688785D01*
X187420D01*
X214505D02*
X241589Y4661700D01*
X322843Y4742954D02*
X268674D01*
Y4702327D01*
X295759Y4715869D01*
X309301D01*
X322843Y4702327D01*
Y4675242D01*
X309301Y4661700D01*
X282216D01*
X268674Y4675242D01*
X390555Y4661700D02*
Y4742954D01*
X349928Y4702327D01*
X404097D01*
X241589Y4894511D02*
X228047Y4908054D01*
X200963D01*
X187420Y4894511D01*
Y4840342D01*
X200963Y4826800D01*
X228047D01*
X241589Y4840342D01*
X322843Y4826800D02*
X268674D01*
X322843Y4880969D01*
Y4894511D01*
X309301Y4908054D01*
X282216D01*
X268674Y4894511D01*
X349928Y4826800D02*
X377012D01*
X363470D01*
Y4908054D01*
X349928Y4894511D01*
X187420Y5002060D02*
Y5083314D01*
X228047D01*
X241589Y5069771D01*
Y5042687D01*
X228047Y5029145D01*
X187420D01*
X214505D02*
X241589Y5002060D01*
X322843Y5083314D02*
X268674D01*
Y5042687D01*
X295759Y5056229D01*
X309301D01*
X322843Y5042687D01*
Y5015602D01*
X309301Y5002060D01*
X282216D01*
X268674Y5015602D01*
X404097Y5083314D02*
X377012Y5069771D01*
X349928Y5042687D01*
Y5015602D01*
X363470Y5002060D01*
X390555D01*
X404097Y5015602D01*
Y5029145D01*
X390555Y5042687D01*
X349928D01*
X241589Y5247571D02*
X228047Y5261114D01*
X200963D01*
X187420Y5247571D01*
Y5193402D01*
X200963Y5179860D01*
X228047D01*
X241589Y5193402D01*
X322843Y5179860D02*
X268674D01*
X322843Y5234029D01*
Y5247571D01*
X309301Y5261114D01*
X282216D01*
X268674Y5247571D01*
X349928D02*
X363470Y5261114D01*
X390555D01*
X404097Y5247571D01*
Y5234029D01*
X390555Y5220487D01*
X377012D01*
X390555D01*
X404097Y5206945D01*
Y5193402D01*
X390555Y5179860D01*
X363470D01*
X349928Y5193402D01*
X187420Y5339880D02*
Y5421134D01*
X228047D01*
X241589Y5407591D01*
Y5380507D01*
X228047Y5366965D01*
X187420D01*
X214505D02*
X241589Y5339880D01*
X322843Y5421134D02*
X268674D01*
Y5380507D01*
X295759Y5394049D01*
X309301D01*
X322843Y5380507D01*
Y5353422D01*
X309301Y5339880D01*
X282216D01*
X268674Y5353422D01*
X349928Y5407591D02*
X363470Y5421134D01*
X390555D01*
X404097Y5407591D01*
Y5394049D01*
X390555Y5380507D01*
X404097Y5366965D01*
Y5353422D01*
X390555Y5339880D01*
X363470D01*
X349928Y5353422D01*
Y5366965D01*
X363470Y5380507D01*
X349928Y5394049D01*
Y5407591D01*
X363470Y5380507D02*
X390555D01*
X241589Y5587931D02*
X228047Y5601474D01*
X200963D01*
X187420Y5587931D01*
Y5533762D01*
X200963Y5520220D01*
X228047D01*
X241589Y5533762D01*
X322843Y5520220D02*
X268674D01*
X322843Y5574389D01*
Y5587931D01*
X309301Y5601474D01*
X282216D01*
X268674Y5587931D01*
X404097Y5601474D02*
X349928D01*
Y5560847D01*
X377012Y5574389D01*
X390555D01*
X404097Y5560847D01*
Y5533762D01*
X390555Y5520220D01*
X363470D01*
X349928Y5533762D01*
X187420Y5680240D02*
Y5761494D01*
X228047D01*
X241589Y5747951D01*
Y5720867D01*
X228047Y5707325D01*
X187420D01*
X214505D02*
X241589Y5680240D01*
X322843Y5761494D02*
X295759Y5747951D01*
X268674Y5720867D01*
Y5693782D01*
X282216Y5680240D01*
X309301D01*
X322843Y5693782D01*
Y5707325D01*
X309301Y5720867D01*
X268674D01*
X349928Y5747951D02*
X363470Y5761494D01*
X390555D01*
X404097Y5747951D01*
Y5693782D01*
X390555Y5680240D01*
X363470D01*
X349928Y5693782D01*
Y5747951D01*
X2265949Y5803151D02*
X2252407Y5816694D01*
X2225322D01*
X2211780Y5803151D01*
Y5748982D01*
X2225322Y5735440D01*
X2252407D01*
X2265949Y5748982D01*
X2347203Y5735440D02*
X2293034D01*
X2347203Y5789609D01*
Y5803151D01*
X2333661Y5816694D01*
X2306576D01*
X2293034Y5803151D01*
X2414915Y5735440D02*
Y5816694D01*
X2374288Y5776067D01*
X2428457D01*
X2211780Y5850352D02*
Y5931606D01*
X2252407D01*
X2265949Y5918063D01*
Y5890979D01*
X2252407Y5877436D01*
X2211780D01*
X2238865D02*
X2265949Y5850352D01*
X2347203Y5931606D02*
X2293034D01*
Y5890979D01*
X2320119Y5904521D01*
X2333661D01*
X2347203Y5890979D01*
Y5863894D01*
X2333661Y5850352D01*
X2306576D01*
X2293034Y5863894D01*
X2374288D02*
X2387830Y5850352D01*
X2414915D01*
X2428457Y5863894D01*
Y5918063D01*
X2414915Y5931606D01*
X2387830D01*
X2374288Y5918063D01*
Y5904521D01*
X2387830Y5890979D01*
X2428457D01*
X2265949Y6032975D02*
X2252407Y6046517D01*
X2225322D01*
X2211780Y6032975D01*
Y5978806D01*
X2225322Y5965264D01*
X2252407D01*
X2265949Y5978806D01*
X2347203Y5965264D02*
X2293034D01*
X2347203Y6019433D01*
Y6032975D01*
X2333661Y6046517D01*
X2306576D01*
X2293034Y6032975D01*
X2428457Y5965264D02*
X2374288D01*
X2428457Y6019433D01*
Y6032975D01*
X2414915Y6046517D01*
X2387830D01*
X2374288Y6032975D01*
X2211780Y6080176D02*
Y6161429D01*
X2252407D01*
X2265949Y6147887D01*
Y6120802D01*
X2252407Y6107260D01*
X2211780D01*
X2238865D02*
X2265949Y6080176D01*
X2347203Y6161429D02*
X2293034D01*
Y6120802D01*
X2320119Y6134345D01*
X2333661D01*
X2347203Y6120802D01*
Y6093718D01*
X2333661Y6080176D01*
X2306576D01*
X2293034Y6093718D01*
X2374288Y6161429D02*
X2428457D01*
Y6147887D01*
X2374288Y6093718D01*
Y6080176D01*
X2265949Y6262799D02*
X2252407Y6276341D01*
X2225322D01*
X2211780Y6262799D01*
Y6208630D01*
X2225322Y6195087D01*
X2252407D01*
X2265949Y6208630D01*
X2347203Y6195087D02*
X2293034D01*
X2347203Y6249256D01*
Y6262799D01*
X2333661Y6276341D01*
X2306576D01*
X2293034Y6262799D01*
X2374288D02*
X2387830Y6276341D01*
X2414915D01*
X2428457Y6262799D01*
Y6208630D01*
X2414915Y6195087D01*
X2387830D01*
X2374288Y6208630D01*
Y6262799D01*
X2211780Y6309999D02*
Y6391253D01*
X2252407D01*
X2265949Y6377711D01*
Y6350626D01*
X2252407Y6337084D01*
X2211780D01*
X2238865D02*
X2265949Y6309999D01*
X2347203Y6391253D02*
X2293034D01*
Y6350626D01*
X2320119Y6364168D01*
X2333661D01*
X2347203Y6350626D01*
Y6323542D01*
X2333661Y6309999D01*
X2306576D01*
X2293034Y6323542D01*
X2428457Y6391253D02*
X2374288D01*
Y6350626D01*
X2401372Y6364168D01*
X2414915D01*
X2428457Y6350626D01*
Y6323542D01*
X2414915Y6309999D01*
X2387830D01*
X2374288Y6323542D01*
X5675000Y9106254D02*
X5729169D01*
X5702085D01*
Y9025000D01*
X5756254D02*
Y9106254D01*
X5796881D01*
X5810423Y9092711D01*
Y9065627D01*
X5796881Y9052085D01*
X5756254D01*
X5837508Y9025000D02*
X5864592D01*
X5851050D01*
Y9106254D01*
X5837508Y9092711D01*
X5959388Y9106254D02*
X5932304Y9092711D01*
X5905219Y9065627D01*
Y9038542D01*
X5918761Y9025000D01*
X5945846D01*
X5959388Y9038542D01*
Y9052085D01*
X5945846Y9065627D01*
X5905219D01*
X5677288Y9734169D02*
X5663746Y9720626D01*
Y9693542D01*
X5677288Y9680000D01*
X5731457D01*
X5745000Y9693542D01*
Y9720626D01*
X5731457Y9734169D01*
X5677288Y9761254D02*
X5663746Y9774796D01*
Y9801880D01*
X5677288Y9815423D01*
X5690831D01*
X5704373Y9801880D01*
Y9788338D01*
Y9801880D01*
X5717915Y9815423D01*
X5731457D01*
X5745000Y9801880D01*
Y9774796D01*
X5731457Y9761254D01*
X5663746Y9896676D02*
Y9842507D01*
X5704373D01*
X5690831Y9869592D01*
Y9883134D01*
X5704373Y9896676D01*
X5731457D01*
X5745000Y9883134D01*
Y9856050D01*
X5731457Y9842507D01*
X5520622Y9734169D02*
X5507079Y9720626D01*
Y9693542D01*
X5520622Y9680000D01*
X5574791D01*
X5588333Y9693542D01*
Y9720626D01*
X5574791Y9734169D01*
X5520622Y9761254D02*
X5507079Y9774796D01*
Y9801880D01*
X5520622Y9815423D01*
X5534164D01*
X5547706Y9801880D01*
Y9788338D01*
Y9801880D01*
X5561249Y9815423D01*
X5574791D01*
X5588333Y9801880D01*
Y9774796D01*
X5574791Y9761254D01*
X5507079Y9896676D02*
X5520622Y9869592D01*
X5547706Y9842507D01*
X5574791D01*
X5588333Y9856050D01*
Y9883134D01*
X5574791Y9896676D01*
X5561249D01*
X5547706Y9883134D01*
Y9842507D01*
X5363955Y9734169D02*
X5350413Y9720627D01*
Y9693542D01*
X5363955Y9680000D01*
X5418124D01*
X5431667Y9693542D01*
Y9720627D01*
X5418124Y9734169D01*
X5363955Y9761254D02*
X5350413Y9774796D01*
Y9801881D01*
X5363955Y9815423D01*
X5377497D01*
X5391040Y9801881D01*
Y9788338D01*
Y9801881D01*
X5404582Y9815423D01*
X5418124D01*
X5431667Y9801881D01*
Y9774796D01*
X5418124Y9761254D01*
X5350413Y9842508D02*
Y9896677D01*
X5363955D01*
X5418124Y9842508D01*
X5431667D01*
X5207289Y9734169D02*
X5193746Y9720627D01*
Y9693542D01*
X5207289Y9680000D01*
X5261458D01*
X5275000Y9693542D01*
Y9720627D01*
X5261458Y9734169D01*
X5207289Y9761254D02*
X5193746Y9774796D01*
Y9801881D01*
X5207289Y9815423D01*
X5220831D01*
X5234373Y9801881D01*
Y9788338D01*
Y9801881D01*
X5247916Y9815423D01*
X5261458D01*
X5275000Y9801881D01*
Y9774796D01*
X5261458Y9761254D01*
X5207289Y9842508D02*
X5193746Y9856050D01*
Y9883134D01*
X5207289Y9896677D01*
X5220831D01*
X5234373Y9883134D01*
X5247916Y9896677D01*
X5261458D01*
X5275000Y9883134D01*
Y9856050D01*
X5261458Y9842508D01*
X5247916D01*
X5234373Y9856050D01*
X5220831Y9842508D01*
X5207289D01*
X5234373Y9856050D02*
Y9883134D01*
X3635000Y8535000D02*
X3553746D01*
Y8575627D01*
X3567289Y8589169D01*
X3594373D01*
X3607916Y8575627D01*
Y8535000D01*
Y8562084D02*
X3635000Y8589169D01*
X3567289Y8616254D02*
X3553746Y8629796D01*
Y8656881D01*
X3567289Y8670423D01*
X3580831D01*
X3594373Y8656881D01*
X3607916Y8670423D01*
X3621458D01*
X3635000Y8656881D01*
Y8629796D01*
X3621458Y8616254D01*
X3607916D01*
X3594373Y8629796D01*
X3580831Y8616254D01*
X3567289D01*
X3594373Y8629796D02*
Y8656881D01*
X3567289Y8697508D02*
X3553746Y8711050D01*
Y8738134D01*
X3567289Y8751677D01*
X3580831D01*
X3594373Y8738134D01*
X3607916Y8751677D01*
X3621458D01*
X3635000Y8738134D01*
Y8711050D01*
X3621458Y8697508D01*
X3607916D01*
X3594373Y8711050D01*
X3580831Y8697508D01*
X3567289D01*
X3594373Y8711050D02*
Y8738134D01*
X3512500Y8535000D02*
X3431246D01*
Y8575627D01*
X3444789Y8589169D01*
X3471873D01*
X3485415Y8575627D01*
Y8535000D01*
Y8562084D02*
X3512500Y8589169D01*
X3444789Y8616254D02*
X3431246Y8629796D01*
Y8656881D01*
X3444789Y8670423D01*
X3458331D01*
X3471873Y8656881D01*
X3485415Y8670423D01*
X3498958D01*
X3512500Y8656881D01*
Y8629796D01*
X3498958Y8616254D01*
X3485415D01*
X3471873Y8629796D01*
X3458331Y8616254D01*
X3444789D01*
X3471873Y8629796D02*
Y8656881D01*
X3431246Y8751677D02*
Y8697508D01*
X3471873D01*
X3458331Y8724592D01*
Y8738134D01*
X3471873Y8751677D01*
X3498958D01*
X3512500Y8738134D01*
Y8711050D01*
X3498958Y8697508D01*
X3382500Y8535000D02*
X3301246D01*
Y8575627D01*
X3314789Y8589169D01*
X3341873D01*
X3355415Y8575627D01*
Y8535000D01*
Y8562084D02*
X3382500Y8589169D01*
X3314789Y8616254D02*
X3301246Y8629796D01*
Y8656881D01*
X3314789Y8670423D01*
X3328331D01*
X3341873Y8656881D01*
X3355415Y8670423D01*
X3368958D01*
X3382500Y8656881D01*
Y8629796D01*
X3368958Y8616254D01*
X3355415D01*
X3341873Y8629796D01*
X3328331Y8616254D01*
X3314789D01*
X3341873Y8629796D02*
Y8656881D01*
X3382500Y8738134D02*
X3301246D01*
X3341873Y8697508D01*
Y8751677D01*
X3829169Y8747711D02*
X3815627Y8761254D01*
X3788542D01*
X3775000Y8747711D01*
Y8693542D01*
X3788542Y8680000D01*
X3815627D01*
X3829169Y8693542D01*
X3856254Y8747711D02*
X3869796Y8761254D01*
X3896880D01*
X3910423Y8747711D01*
Y8734169D01*
X3896880Y8720627D01*
X3883338D01*
X3896880D01*
X3910423Y8707085D01*
Y8693542D01*
X3896880Y8680000D01*
X3869796D01*
X3856254Y8693542D01*
X3991677Y8680000D02*
X3937507D01*
X3991677Y8734169D01*
Y8747711D01*
X3978134Y8761254D01*
X3951050D01*
X3937507Y8747711D01*
X3829169Y8507711D02*
X3815627Y8521254D01*
X3788542D01*
X3775000Y8507711D01*
Y8453542D01*
X3788542Y8440000D01*
X3815627D01*
X3829169Y8453542D01*
X3856254Y8507711D02*
X3869796Y8521254D01*
X3896880D01*
X3910423Y8507711D01*
Y8494169D01*
X3896880Y8480627D01*
X3883338D01*
X3896880D01*
X3910423Y8467085D01*
Y8453542D01*
X3896880Y8440000D01*
X3869796D01*
X3856254Y8453542D01*
X3978134Y8440000D02*
Y8521254D01*
X3937507Y8480627D01*
X3991677D01*
X3304169Y8247711D02*
X3290627Y8261254D01*
X3263542D01*
X3250000Y8247711D01*
Y8193542D01*
X3263542Y8180000D01*
X3290627D01*
X3304169Y8193542D01*
X3331254Y8247711D02*
X3344796Y8261254D01*
X3371881D01*
X3385423Y8247711D01*
Y8234169D01*
X3371881Y8220627D01*
X3358338D01*
X3371881D01*
X3385423Y8207084D01*
Y8193542D01*
X3371881Y8180000D01*
X3344796D01*
X3331254Y8193542D01*
X3412508Y8180000D02*
X3439592D01*
X3426050D01*
Y8261254D01*
X3412508Y8247711D01*
X3829169Y8627711D02*
X3815627Y8641254D01*
X3788542D01*
X3775000Y8627711D01*
Y8573542D01*
X3788542Y8560000D01*
X3815627D01*
X3829169Y8573542D01*
X3856254Y8627711D02*
X3869796Y8641254D01*
X3896880D01*
X3910423Y8627711D01*
Y8614169D01*
X3896880Y8600627D01*
X3883338D01*
X3896880D01*
X3910423Y8587085D01*
Y8573542D01*
X3896880Y8560000D01*
X3869796D01*
X3856254Y8573542D01*
X3937507Y8627711D02*
X3951050Y8641254D01*
X3978134D01*
X3991677Y8627711D01*
Y8614169D01*
X3978134Y8600627D01*
X3964592D01*
X3978134D01*
X3991677Y8587085D01*
Y8573542D01*
X3978134Y8560000D01*
X3951050D01*
X3937507Y8573542D01*
X3192500Y8987500D02*
Y9068754D01*
X3233127D01*
X3246669Y9055211D01*
Y9028127D01*
X3233127Y9014584D01*
X3192500D01*
X3219585D02*
X3246669Y8987500D01*
X3273754Y9055211D02*
X3287296Y9068754D01*
X3314381D01*
X3327923Y9055211D01*
Y9041669D01*
X3314381Y9028127D01*
X3327923Y9014584D01*
Y9001042D01*
X3314381Y8987500D01*
X3287296D01*
X3273754Y9001042D01*
Y9014584D01*
X3287296Y9028127D01*
X3273754Y9041669D01*
Y9055211D01*
X3287296Y9028127D02*
X3314381D01*
X3409177Y9068754D02*
X3382092Y9055211D01*
X3355008Y9028127D01*
Y9001042D01*
X3368550Y8987500D01*
X3395635D01*
X3409177Y9001042D01*
Y9014584D01*
X3395635Y9028127D01*
X3355008D01*
X3169789Y9591669D02*
X3156246Y9578127D01*
Y9551043D01*
X3169789Y9537500D01*
X3223958D01*
X3237500Y9551043D01*
Y9578127D01*
X3223958Y9591669D01*
X3156246Y9672923D02*
Y9618754D01*
X3196873D01*
X3183331Y9645839D01*
Y9659381D01*
X3196873Y9672923D01*
X3223958D01*
X3237500Y9659381D01*
Y9632296D01*
X3223958Y9618754D01*
X3237500Y9740635D02*
X3156246D01*
X3196873Y9700008D01*
Y9754177D01*
X3115000Y9537500D02*
X3033746D01*
Y9578127D01*
X3047289Y9591669D01*
X3074373D01*
X3087916Y9578127D01*
Y9537500D01*
Y9564585D02*
X3115000Y9591669D01*
X3047289Y9618754D02*
X3033746Y9632296D01*
Y9659381D01*
X3047289Y9672923D01*
X3060831D01*
X3074373Y9659381D01*
X3087916Y9672923D01*
X3101458D01*
X3115000Y9659381D01*
Y9632296D01*
X3101458Y9618754D01*
X3087916D01*
X3074373Y9632296D01*
X3060831Y9618754D01*
X3047289D01*
X3074373Y9632296D02*
Y9659381D01*
X3115000Y9700008D02*
Y9727092D01*
Y9713550D01*
X3033746D01*
X3047289Y9700008D01*
X2992500Y9537500D02*
X2911246D01*
Y9578127D01*
X2924789Y9591669D01*
X2951873D01*
X2965415Y9578127D01*
Y9537500D01*
Y9564585D02*
X2992500Y9591669D01*
X2924789Y9618754D02*
X2911246Y9632296D01*
Y9659381D01*
X2924789Y9672923D01*
X2938331D01*
X2951873Y9659381D01*
X2965415Y9672923D01*
X2978958D01*
X2992500Y9659381D01*
Y9632296D01*
X2978958Y9618754D01*
X2965415D01*
X2951873Y9632296D01*
X2938331Y9618754D01*
X2924789D01*
X2951873Y9632296D02*
Y9659381D01*
X2992500Y9754177D02*
Y9700008D01*
X2938331Y9754177D01*
X2924789D01*
X2911246Y9740635D01*
Y9713550D01*
X2924789Y9700008D01*
X2870000Y9537500D02*
X2788746D01*
Y9578127D01*
X2802289Y9591669D01*
X2829373D01*
X2842916Y9578127D01*
Y9537500D01*
Y9564585D02*
X2870000Y9591669D01*
X2802289Y9618754D02*
X2788746Y9632296D01*
Y9659381D01*
X2802289Y9672923D01*
X2815831D01*
X2829373Y9659381D01*
X2842916Y9672923D01*
X2856458D01*
X2870000Y9659381D01*
Y9632296D01*
X2856458Y9618754D01*
X2842916D01*
X2829373Y9632296D01*
X2815831Y9618754D01*
X2802289D01*
X2829373Y9632296D02*
Y9659381D01*
X2802289Y9700008D02*
X2788746Y9713550D01*
Y9740635D01*
X2802289Y9754177D01*
X2815831D01*
X2829373Y9740635D01*
Y9727092D01*
Y9740635D01*
X2842916Y9754177D01*
X2856458D01*
X2870000Y9740635D01*
Y9713550D01*
X2856458Y9700008D01*
X3169789Y9264169D02*
X3156246Y9250627D01*
Y9223542D01*
X3169789Y9210000D01*
X3223958D01*
X3237500Y9223542D01*
Y9250627D01*
X3223958Y9264169D01*
X3237500Y9331881D02*
X3156246D01*
X3196873Y9291254D01*
Y9345423D01*
X3169789Y9372508D02*
X3156246Y9386050D01*
Y9413135D01*
X3169789Y9426677D01*
X3223958D01*
X3237500Y9413135D01*
Y9386050D01*
X3223958Y9372508D01*
X3169789D01*
X3047289Y9264169D02*
X3033746Y9250627D01*
Y9223542D01*
X3047289Y9210000D01*
X3101458D01*
X3115000Y9223542D01*
Y9250627D01*
X3101458Y9264169D01*
X3047289Y9291254D02*
X3033746Y9304796D01*
Y9331881D01*
X3047289Y9345423D01*
X3060831D01*
X3074373Y9331881D01*
Y9318338D01*
Y9331881D01*
X3087916Y9345423D01*
X3101458D01*
X3115000Y9331881D01*
Y9304796D01*
X3101458Y9291254D01*
Y9372508D02*
X3115000Y9386050D01*
Y9413135D01*
X3101458Y9426677D01*
X3047289D01*
X3033746Y9413135D01*
Y9386050D01*
X3047289Y9372508D01*
X3060831D01*
X3074373Y9386050D01*
Y9426677D01*
X2992500Y9212500D02*
X2911246D01*
Y9253127D01*
X2924789Y9266669D01*
X2951873D01*
X2965415Y9253127D01*
Y9212500D01*
Y9239585D02*
X2992500Y9266669D01*
X2924789Y9293754D02*
X2911246Y9307296D01*
Y9334381D01*
X2924789Y9347923D01*
X2938331D01*
X2951873Y9334381D01*
X2965415Y9347923D01*
X2978958D01*
X2992500Y9334381D01*
Y9307296D01*
X2978958Y9293754D01*
X2965415D01*
X2951873Y9307296D01*
X2938331Y9293754D01*
X2924789D01*
X2951873Y9307296D02*
Y9334381D01*
X2911246Y9375008D02*
Y9429177D01*
X2924789D01*
X2978958Y9375008D01*
X2992500D01*
X4033080Y9819734D02*
Y9752022D01*
X4046622Y9738480D01*
X4073707D01*
X4087249Y9752022D01*
Y9819734D01*
X4168503Y9738480D02*
X4114334D01*
X4168503Y9792649D01*
Y9806191D01*
X4154961Y9819734D01*
X4127876D01*
X4114334Y9806191D01*
X2872300Y7988394D02*
X2926469D01*
X2899385D01*
Y7907140D01*
X2953554D02*
Y7988394D01*
X2994181D01*
X3007723Y7974851D01*
Y7947767D01*
X2994181Y7934224D01*
X2953554D01*
X3034808Y7907140D02*
X3061892D01*
X3048350D01*
Y7988394D01*
X3034808Y7974851D01*
X3102519Y7988394D02*
X3156688D01*
Y7974851D01*
X3102519Y7920682D01*
Y7907140D01*
X4870000Y8466254D02*
Y8385000D01*
X4924169D01*
X4951254D02*
X4978338D01*
X4964796D01*
Y8466254D01*
X4951254Y8452711D01*
X1941669Y8737645D02*
X1928127Y8751187D01*
X1901042D01*
X1887500Y8737645D01*
Y8683476D01*
X1901042Y8669933D01*
X1928127D01*
X1941669Y8683476D01*
X2009381Y8669933D02*
Y8751187D01*
X1968754Y8710560D01*
X2022923D01*
X2104177Y8669933D02*
X2050008D01*
X2104177Y8724102D01*
Y8737645D01*
X2090634Y8751187D01*
X2063550D01*
X2050008Y8737645D01*
X1142500Y4585000D02*
Y4666254D01*
X1183127D01*
X1196669Y4652711D01*
Y4625627D01*
X1183127Y4612085D01*
X1142500D01*
X1277923Y4585000D02*
X1223754D01*
X1277923Y4639169D01*
Y4652711D01*
X1264381Y4666254D01*
X1237296D01*
X1223754Y4652711D01*
X1359177Y4666254D02*
X1332092Y4652711D01*
X1305008Y4625627D01*
Y4598542D01*
X1318550Y4585000D01*
X1345634D01*
X1359177Y4598542D01*
Y4612085D01*
X1345634Y4625627D01*
X1305008D01*
X1107500Y2865000D02*
Y2946254D01*
X1148127D01*
X1161669Y2932711D01*
Y2905627D01*
X1148127Y2892085D01*
X1107500D01*
X1242923Y2865000D02*
X1188754D01*
X1242923Y2919169D01*
Y2932711D01*
X1229381Y2946254D01*
X1202296D01*
X1188754Y2932711D01*
X1324177Y2946254D02*
X1270008D01*
Y2905627D01*
X1297092Y2919169D01*
X1310634D01*
X1324177Y2905627D01*
Y2878542D01*
X1310634Y2865000D01*
X1283550D01*
X1270008Y2878542D01*
X2285000Y1021254D02*
X2339169D01*
X2312085D01*
Y940000D01*
X2366254D02*
Y1021254D01*
X2406881D01*
X2420423Y1007711D01*
Y980627D01*
X2406881Y967084D01*
X2366254D01*
X2447508Y940000D02*
X2474592D01*
X2461050D01*
Y1021254D01*
X2447508Y1007711D01*
X2569388Y1021254D02*
X2515219D01*
Y980627D01*
X2542304Y994169D01*
X2555846D01*
X2569388Y980627D01*
Y953542D01*
X2555846Y940000D01*
X2528761D01*
X2515219Y953542D01*
X1390000Y3542500D02*
Y3623754D01*
X1430627D01*
X1444169Y3610211D01*
Y3583127D01*
X1430627Y3569584D01*
X1390000D01*
X1417085D02*
X1444169Y3542500D01*
X1471254Y3623754D02*
X1525423D01*
Y3610211D01*
X1471254Y3556042D01*
Y3542500D01*
X1552508Y3556042D02*
X1566050Y3542500D01*
X1593134D01*
X1606677Y3556042D01*
Y3610211D01*
X1593134Y3623754D01*
X1566050D01*
X1552508Y3610211D01*
Y3596669D01*
X1566050Y3583127D01*
X1606677D01*
X1667500Y3137500D02*
Y3218754D01*
X1708127D01*
X1721669Y3205211D01*
Y3178127D01*
X1708127Y3164584D01*
X1667500D01*
X1694585D02*
X1721669Y3137500D01*
X1748754Y3218754D02*
X1802923D01*
Y3205211D01*
X1748754Y3151042D01*
Y3137500D01*
X1830008Y3205211D02*
X1843550Y3218754D01*
X1870635D01*
X1884177Y3205211D01*
Y3191669D01*
X1870635Y3178127D01*
X1884177Y3164584D01*
Y3151042D01*
X1870635Y3137500D01*
X1843550D01*
X1830008Y3151042D01*
Y3164584D01*
X1843550Y3178127D01*
X1830008Y3191669D01*
Y3205211D01*
X1843550Y3178127D02*
X1870635D01*
X1397500Y4190000D02*
Y4271254D01*
X1438127D01*
X1451669Y4257711D01*
Y4230627D01*
X1438127Y4217085D01*
X1397500D01*
X1424585D02*
X1451669Y4190000D01*
X1478754Y4271254D02*
X1532923D01*
Y4257711D01*
X1478754Y4203542D01*
Y4190000D01*
X1560008Y4271254D02*
X1614177D01*
Y4257711D01*
X1560008Y4203542D01*
Y4190000D01*
X1562500Y3802500D02*
Y3883754D01*
X1603127D01*
X1616669Y3870211D01*
Y3843127D01*
X1603127Y3829584D01*
X1562500D01*
X1589585D02*
X1616669Y3802500D01*
X1643754Y3883754D02*
X1697923D01*
Y3870211D01*
X1643754Y3816042D01*
Y3802500D01*
X1779177Y3883754D02*
X1752092Y3870211D01*
X1725008Y3843127D01*
Y3816042D01*
X1738550Y3802500D01*
X1765635D01*
X1779177Y3816042D01*
Y3829584D01*
X1765635Y3843127D01*
X1725008D01*
X5921669Y9352711D02*
X5908127Y9366254D01*
X5881042D01*
X5867500Y9352711D01*
Y9298542D01*
X5881042Y9285000D01*
X5908127D01*
X5921669Y9298542D01*
X5948754Y9352711D02*
X5962296Y9366254D01*
X5989381D01*
X6002923Y9352711D01*
Y9339169D01*
X5989381Y9325627D01*
X5975838D01*
X5989381D01*
X6002923Y9312084D01*
Y9298542D01*
X5989381Y9285000D01*
X5962296D01*
X5948754Y9298542D01*
X6030008Y9352711D02*
X6043550Y9366254D01*
X6070635D01*
X6084177Y9352711D01*
Y9298542D01*
X6070635Y9285000D01*
X6043550D01*
X6030008Y9298542D01*
Y9352711D01*
X1431669Y3322711D02*
X1418127Y3336254D01*
X1391042D01*
X1377500Y3322711D01*
Y3268542D01*
X1391042Y3255000D01*
X1418127D01*
X1431669Y3268542D01*
X1512923Y3255000D02*
X1458754D01*
X1512923Y3309169D01*
Y3322711D01*
X1499381Y3336254D01*
X1472296D01*
X1458754Y3322711D01*
X1540008Y3268542D02*
X1553550Y3255000D01*
X1580634D01*
X1594177Y3268542D01*
Y3322711D01*
X1580634Y3336254D01*
X1553550D01*
X1540008Y3322711D01*
Y3309169D01*
X1553550Y3295627D01*
X1594177D01*
X1436669Y3992711D02*
X1423127Y4006254D01*
X1396042D01*
X1382500Y3992711D01*
Y3938542D01*
X1396042Y3925000D01*
X1423127D01*
X1436669Y3938542D01*
X1517923Y3925000D02*
X1463754D01*
X1517923Y3979169D01*
Y3992711D01*
X1504381Y4006254D01*
X1477296D01*
X1463754Y3992711D01*
X1545008D02*
X1558550Y4006254D01*
X1585634D01*
X1599177Y3992711D01*
Y3979169D01*
X1585634Y3965627D01*
X1599177Y3952085D01*
Y3938542D01*
X1585634Y3925000D01*
X1558550D01*
X1545008Y3938542D01*
Y3952085D01*
X1558550Y3965627D01*
X1545008Y3979169D01*
Y3992711D01*
X1558550Y3965627D02*
X1585634D01*
X1075571Y442500D02*
X994317D01*
Y483127D01*
X1007860Y496669D01*
X1034944D01*
X1048487Y483127D01*
Y442500D01*
Y469585D02*
X1075571Y496669D01*
X994317Y577923D02*
X1007860Y550838D01*
X1034944Y523754D01*
X1062029D01*
X1075571Y537296D01*
Y564381D01*
X1062029Y577923D01*
X1048487D01*
X1034944Y564381D01*
Y523754D01*
X1007860Y605008D02*
X994317Y618550D01*
Y645634D01*
X1007860Y659177D01*
X1021402D01*
X1034944Y645634D01*
Y632092D01*
Y645634D01*
X1048487Y659177D01*
X1062029D01*
X1075571Y645634D01*
Y618550D01*
X1062029Y605008D01*
X5247500Y5773754D02*
Y5760211D01*
X5274585Y5733127D01*
X5301669Y5760211D01*
Y5773754D01*
X5274585Y5733127D02*
Y5692500D01*
X5328754D02*
X5355838D01*
X5342296D01*
Y5773754D01*
X5328754Y5760211D01*
X1750000Y1106254D02*
Y1038542D01*
X1763542Y1025000D01*
X1790627D01*
X1804169Y1038542D01*
Y1106254D01*
X1885423D02*
X1831254D01*
Y1065627D01*
X1858338Y1079169D01*
X1871881D01*
X1885423Y1065627D01*
Y1038542D01*
X1871881Y1025000D01*
X1844796D01*
X1831254Y1038542D01*
X2180000Y3798754D02*
Y3731042D01*
X2193542Y3717500D01*
X2220627D01*
X2234169Y3731042D01*
Y3798754D01*
X2301881Y3717500D02*
Y3798754D01*
X2261254Y3758127D01*
X2315423D01*
X2182500Y4471254D02*
Y4403542D01*
X2196042Y4390000D01*
X2223127D01*
X2236669Y4403542D01*
Y4471254D01*
X2263754Y4457711D02*
X2277296Y4471254D01*
X2304381D01*
X2317923Y4457711D01*
Y4444169D01*
X2304381Y4430627D01*
X2290838D01*
X2304381D01*
X2317923Y4417085D01*
Y4403542D01*
X2304381Y4390000D01*
X2277296D01*
X2263754Y4403542D01*
X3210000Y6063754D02*
Y5996042D01*
X3223542Y5982500D01*
X3250627D01*
X3264169Y5996042D01*
Y6063754D01*
X3291254Y5982500D02*
X3318338D01*
X3304796D01*
Y6063754D01*
X3291254Y6050211D01*
X5389910Y4170944D02*
X5444079D01*
X5416995D01*
Y4089690D01*
X5471164D02*
Y4170944D01*
X5511791D01*
X5525333Y4157401D01*
Y4130317D01*
X5511791Y4116774D01*
X5471164D01*
X5552418Y4089690D02*
X5579502D01*
X5565960D01*
Y4170944D01*
X5552418Y4157401D01*
X5620129Y4089690D02*
X5647214D01*
X5633671D01*
Y4170944D01*
X5620129Y4157401D01*
X5070000Y2281254D02*
X5124169D01*
X5097085D01*
Y2200000D01*
X5151254D02*
Y2281254D01*
X5191881D01*
X5205423Y2267711D01*
Y2240627D01*
X5191881Y2227084D01*
X5151254D01*
X5232508Y2213542D02*
X5246050Y2200000D01*
X5273134D01*
X5286677Y2213542D01*
Y2267711D01*
X5273134Y2281254D01*
X5246050D01*
X5232508Y2267711D01*
Y2254169D01*
X5246050Y2240627D01*
X5286677D01*
X1557500Y3751254D02*
X1611669D01*
X1584585D01*
Y3670000D01*
X1638754D02*
Y3751254D01*
X1679381D01*
X1692923Y3737711D01*
Y3710627D01*
X1679381Y3697085D01*
X1638754D01*
X1720008Y3737711D02*
X1733550Y3751254D01*
X1760635D01*
X1774177Y3737711D01*
Y3724169D01*
X1760635Y3710627D01*
X1774177Y3697085D01*
Y3683542D01*
X1760635Y3670000D01*
X1733550D01*
X1720008Y3683542D01*
Y3697085D01*
X1733550Y3710627D01*
X1720008Y3724169D01*
Y3737711D01*
X1733550Y3710627D02*
X1760635D01*
X1577500Y4396254D02*
X1631669D01*
X1604585D01*
Y4315000D01*
X1658754D02*
Y4396254D01*
X1699381D01*
X1712923Y4382711D01*
Y4355627D01*
X1699381Y4342085D01*
X1658754D01*
X1740008Y4396254D02*
X1794177D01*
Y4382711D01*
X1740008Y4328542D01*
Y4315000D01*
X5275000Y7931254D02*
X5329169D01*
X5302084D01*
Y7850000D01*
X5356254D02*
Y7931254D01*
X5396880D01*
X5410423Y7917711D01*
Y7890627D01*
X5396880Y7877084D01*
X5356254D01*
X5491677Y7931254D02*
X5464592Y7917711D01*
X5437508Y7890627D01*
Y7863542D01*
X5451050Y7850000D01*
X5478134D01*
X5491677Y7863542D01*
Y7877084D01*
X5478134Y7890627D01*
X5437508D01*
X5275000Y8331254D02*
X5329169D01*
X5302084D01*
Y8250000D01*
X5356254D02*
Y8331254D01*
X5396880D01*
X5410423Y8317711D01*
Y8290627D01*
X5396880Y8277084D01*
X5356254D01*
X5491677Y8331254D02*
X5437508D01*
Y8290627D01*
X5464592Y8304169D01*
X5478134D01*
X5491677Y8290627D01*
Y8263542D01*
X5478134Y8250000D01*
X5451050D01*
X5437508Y8263542D01*
X5275000Y6331254D02*
X5329169D01*
X5302084D01*
Y6250000D01*
X5356254D02*
Y6331254D01*
X5396880D01*
X5410423Y6317711D01*
Y6290627D01*
X5396880Y6277084D01*
X5356254D01*
X5478134Y6250000D02*
Y6331254D01*
X5437508Y6290627D01*
X5491677D01*
X5275000Y6731254D02*
X5329169D01*
X5302084D01*
Y6650000D01*
X5356254D02*
Y6731254D01*
X5396880D01*
X5410423Y6717711D01*
Y6690627D01*
X5396880Y6677084D01*
X5356254D01*
X5437508Y6717711D02*
X5451050Y6731254D01*
X5478134D01*
X5491677Y6717711D01*
Y6704169D01*
X5478134Y6690627D01*
X5464592D01*
X5478134D01*
X5491677Y6677084D01*
Y6663542D01*
X5478134Y6650000D01*
X5451050D01*
X5437508Y6663542D01*
X5275000Y7131254D02*
X5329169D01*
X5302084D01*
Y7050000D01*
X5356254D02*
Y7131254D01*
X5396880D01*
X5410423Y7117711D01*
Y7090627D01*
X5396880Y7077084D01*
X5356254D01*
X5491677Y7050000D02*
X5437508D01*
X5491677Y7104169D01*
Y7117711D01*
X5478134Y7131254D01*
X5451050D01*
X5437508Y7117711D01*
X5275000Y7531254D02*
X5329169D01*
X5302084D01*
Y7450000D01*
X5356254D02*
Y7531254D01*
X5396880D01*
X5410423Y7517711D01*
Y7490627D01*
X5396880Y7477084D01*
X5356254D01*
X5437508Y7450000D02*
X5464592D01*
X5451050D01*
Y7531254D01*
X5437508Y7517711D01*
X6554169Y5592711D02*
X6540627Y5606254D01*
X6513542D01*
X6500000Y5592711D01*
Y5579169D01*
X6513542Y5565627D01*
X6540627D01*
X6554169Y5552085D01*
Y5538542D01*
X6540627Y5525000D01*
X6513542D01*
X6500000Y5538542D01*
X6581254Y5606254D02*
Y5525000D01*
X6608338Y5552085D01*
X6635423Y5525000D01*
Y5606254D01*
X6662508Y5525000D02*
X6689592D01*
X6676050D01*
Y5606254D01*
X6662508Y5592711D01*
X1687500Y442500D02*
X1606246D01*
Y483127D01*
X1619789Y496669D01*
X1646873D01*
X1660416Y483127D01*
Y442500D01*
Y469585D02*
X1687500Y496669D01*
X1606246Y523754D02*
Y577923D01*
X1619789D01*
X1673958Y523754D01*
X1687500D01*
X1606246Y659177D02*
Y605008D01*
X1646873D01*
X1633331Y632092D01*
Y645635D01*
X1646873Y659177D01*
X1673958D01*
X1687500Y645635D01*
Y618550D01*
X1673958Y605008D01*
X1687500Y721711D02*
X1606246D01*
Y762337D01*
X1619789Y775880D01*
X1646873D01*
X1660416Y762337D01*
Y721711D01*
Y748795D02*
X1687500Y775880D01*
X1606246Y802964D02*
Y857133D01*
X1619789D01*
X1673958Y802964D01*
X1687500D01*
Y924845D02*
X1606246D01*
X1646873Y884218D01*
Y938387D01*
X1565114Y442500D02*
X1483860D01*
Y483127D01*
X1497403Y496669D01*
X1524487D01*
X1538030Y483127D01*
Y442500D01*
Y469585D02*
X1565114Y496669D01*
X1483860Y523754D02*
Y577923D01*
X1497403D01*
X1551572Y523754D01*
X1565114D01*
X1497403Y605008D02*
X1483860Y618550D01*
Y645635D01*
X1497403Y659177D01*
X1510945D01*
X1524487Y645635D01*
Y632092D01*
Y645635D01*
X1538030Y659177D01*
X1551572D01*
X1565114Y645635D01*
Y618550D01*
X1551572Y605008D01*
X1565114Y721711D02*
X1483860D01*
Y762337D01*
X1497403Y775880D01*
X1524487D01*
X1538030Y762337D01*
Y721711D01*
Y748795D02*
X1565114Y775880D01*
X1483860Y802964D02*
Y857133D01*
X1497403D01*
X1551572Y802964D01*
X1565114D01*
Y938387D02*
Y884218D01*
X1510945Y938387D01*
X1497403D01*
X1483860Y924845D01*
Y897760D01*
X1497403Y884218D01*
X1442729Y442500D02*
X1361475D01*
Y483127D01*
X1375017Y496669D01*
X1402102D01*
X1415644Y483127D01*
Y442500D01*
Y469585D02*
X1442729Y496669D01*
X1361475Y523754D02*
Y577923D01*
X1375017D01*
X1429186Y523754D01*
X1442729D01*
Y605008D02*
Y632092D01*
Y618550D01*
X1361475D01*
X1375017Y605008D01*
X1442728Y721711D02*
X1361475D01*
Y762337D01*
X1375017Y775880D01*
X1402102D01*
X1415644Y762337D01*
Y721711D01*
Y748795D02*
X1442728Y775880D01*
X1361475Y802964D02*
Y857133D01*
X1375017D01*
X1429186Y802964D01*
X1442728D01*
X1375017Y884218D02*
X1361475Y897760D01*
Y924845D01*
X1375017Y938387D01*
X1429186D01*
X1442728Y924845D01*
Y897760D01*
X1429186Y884218D01*
X1375017D01*
X2337500Y3020000D02*
Y3101253D01*
X2378127D01*
X2391669Y3087711D01*
Y3060626D01*
X2378127Y3047084D01*
X2337500D01*
X2364585D02*
X2391669Y3020000D01*
X2472923Y3101253D02*
X2445838Y3087711D01*
X2418754Y3060626D01*
Y3033542D01*
X2432296Y3020000D01*
X2459381D01*
X2472923Y3033542D01*
Y3047084D01*
X2459381Y3060626D01*
X2418754D01*
X2500008Y3033542D02*
X2513550Y3020000D01*
X2540634D01*
X2554177Y3033542D01*
Y3087711D01*
X2540634Y3101253D01*
X2513550D01*
X2500008Y3087711D01*
Y3074169D01*
X2513550Y3060626D01*
X2554177D01*
X1320343Y442500D02*
X1239089D01*
Y483127D01*
X1252631Y496669D01*
X1279716D01*
X1293258Y483127D01*
Y442500D01*
Y469585D02*
X1320343Y496669D01*
X1239089Y577923D02*
X1252631Y550839D01*
X1279716Y523754D01*
X1306800D01*
X1320343Y537296D01*
Y564381D01*
X1306800Y577923D01*
X1293258D01*
X1279716Y564381D01*
Y523754D01*
X1252631Y605008D02*
X1239089Y618550D01*
Y645635D01*
X1252631Y659177D01*
X1266173D01*
X1279716Y645635D01*
X1293258Y659177D01*
X1306800D01*
X1320343Y645635D01*
Y618550D01*
X1306800Y605008D01*
X1293258D01*
X1279716Y618550D01*
X1266173Y605008D01*
X1252631D01*
X1279716Y618550D02*
Y645635D01*
X1320343Y721710D02*
X1239089D01*
Y762337D01*
X1252631Y775879D01*
X1279716D01*
X1293258Y762337D01*
Y721710D01*
Y748795D02*
X1320343Y775879D01*
X1239089Y857133D02*
X1252631Y830049D01*
X1279716Y802964D01*
X1306801D01*
X1320343Y816506D01*
Y843591D01*
X1306801Y857133D01*
X1293258D01*
X1279716Y843591D01*
Y802964D01*
X1239089Y884218D02*
Y938387D01*
X1252631D01*
X1306801Y884218D01*
X1320343D01*
X1197957Y442500D02*
X1116703D01*
Y483127D01*
X1130245Y496669D01*
X1157330D01*
X1170872Y483127D01*
Y442500D01*
Y469585D02*
X1197957Y496669D01*
X1116703Y577923D02*
X1130245Y550839D01*
X1157330Y523754D01*
X1184414D01*
X1197957Y537296D01*
Y564381D01*
X1184414Y577923D01*
X1170872D01*
X1157330Y564381D01*
Y523754D01*
X1116703Y659177D02*
X1130245Y632092D01*
X1157330Y605008D01*
X1184414D01*
X1197957Y618550D01*
Y645635D01*
X1184414Y659177D01*
X1170872D01*
X1157330Y645635D01*
Y605008D01*
X1197957Y721710D02*
X1116703D01*
Y762337D01*
X1130246Y775879D01*
X1157330D01*
X1170872Y762337D01*
Y721710D01*
Y748795D02*
X1197957Y775879D01*
X1116703Y857133D02*
X1130246Y830049D01*
X1157330Y802964D01*
X1184415D01*
X1197957Y816506D01*
Y843591D01*
X1184415Y857133D01*
X1170872D01*
X1157330Y843591D01*
Y802964D01*
X1116703Y938387D02*
Y884218D01*
X1157330D01*
X1143788Y911302D01*
Y924845D01*
X1157330Y938387D01*
X1184415D01*
X1197957Y924845D01*
Y897760D01*
X1184415Y884218D01*
X2337500Y2887500D02*
Y2968754D01*
X2378127D01*
X2391669Y2955211D01*
Y2928126D01*
X2378127Y2914584D01*
X2337500D01*
X2364585D02*
X2391669Y2887500D01*
X2472923Y2968754D02*
X2445838Y2955211D01*
X2418754Y2928126D01*
Y2901042D01*
X2432296Y2887500D01*
X2459381D01*
X2472923Y2901042D01*
Y2914584D01*
X2459381Y2928126D01*
X2418754D01*
X2540634Y2887500D02*
Y2968754D01*
X2500008Y2928126D01*
X2554177D01*
X1075571Y721711D02*
X994317D01*
Y762337D01*
X1007860Y775880D01*
X1034944D01*
X1048486Y762337D01*
Y721711D01*
Y748795D02*
X1075571Y775880D01*
X994317Y857133D02*
X1007860Y830049D01*
X1034944Y802964D01*
X1062029D01*
X1075571Y816507D01*
Y843591D01*
X1062029Y857133D01*
X1048486D01*
X1034944Y843591D01*
Y802964D01*
X1075571Y938387D02*
Y884218D01*
X1021402Y938387D01*
X1007860D01*
X994317Y924845D01*
Y897760D01*
X1007860Y884218D01*
X2337500Y2490000D02*
Y2571254D01*
X2378127D01*
X2391669Y2557711D01*
Y2530627D01*
X2378127Y2517085D01*
X2337500D01*
X2364585D02*
X2391669Y2490000D01*
X2472923Y2571254D02*
X2445838Y2557711D01*
X2418754Y2530627D01*
Y2503542D01*
X2432296Y2490000D01*
X2459381D01*
X2472923Y2503542D01*
Y2517085D01*
X2459381Y2530627D01*
X2418754D01*
X2500008Y2490000D02*
X2527092D01*
X2513550D01*
Y2571254D01*
X2500008Y2557711D01*
X5835000Y1021000D02*
Y1102254D01*
X5875627D01*
X5889169Y1088711D01*
Y1061627D01*
X5875627Y1048085D01*
X5835000D01*
X5862085D02*
X5889169Y1021000D01*
X5970423Y1102254D02*
X5916254D01*
Y1061627D01*
X5943338Y1075169D01*
X5956881D01*
X5970423Y1061627D01*
Y1034542D01*
X5956881Y1021000D01*
X5929796D01*
X5916254Y1034542D01*
X5997508Y1088711D02*
X6011050Y1102254D01*
X6038134D01*
X6051677Y1088711D01*
Y1075169D01*
X6038134Y1061627D01*
X6024592D01*
X6038134D01*
X6051677Y1048085D01*
Y1034542D01*
X6038134Y1021000D01*
X6011050D01*
X5997508Y1034542D01*
X5270000Y1025000D02*
Y1106254D01*
X5310627D01*
X5324169Y1092711D01*
Y1065627D01*
X5310627Y1052084D01*
X5270000D01*
X5297085D02*
X5324169Y1025000D01*
X5405423Y1106254D02*
X5351254D01*
Y1065627D01*
X5378338Y1079169D01*
X5391881D01*
X5405423Y1065627D01*
Y1038542D01*
X5391881Y1025000D01*
X5364796D01*
X5351254Y1038542D01*
X5486677Y1025000D02*
X5432508D01*
X5486677Y1079169D01*
Y1092711D01*
X5473135Y1106254D01*
X5446050D01*
X5432508Y1092711D01*
X5835000Y1144000D02*
Y1225254D01*
X5875627D01*
X5889169Y1211711D01*
Y1184627D01*
X5875627Y1171085D01*
X5835000D01*
X5862085D02*
X5889169Y1144000D01*
X5970423Y1225254D02*
X5916254D01*
Y1184627D01*
X5943338Y1198169D01*
X5956881D01*
X5970423Y1184627D01*
Y1157542D01*
X5956881Y1144000D01*
X5929796D01*
X5916254Y1157542D01*
X5997508Y1144000D02*
X6024592D01*
X6011050D01*
Y1225254D01*
X5997508Y1211711D01*
X5270000Y1147500D02*
Y1228753D01*
X5310627D01*
X5324169Y1215211D01*
Y1188126D01*
X5310627Y1174584D01*
X5270000D01*
X5297085D02*
X5324169Y1147500D01*
X5405423Y1228753D02*
X5351254D01*
Y1188126D01*
X5378338Y1201669D01*
X5391881D01*
X5405423Y1188126D01*
Y1161042D01*
X5391881Y1147500D01*
X5364796D01*
X5351254Y1161042D01*
X5432508Y1215211D02*
X5446050Y1228753D01*
X5473135D01*
X5486677Y1215211D01*
Y1161042D01*
X5473135Y1147500D01*
X5446050D01*
X5432508Y1161042D01*
Y1215211D01*
X5835000Y1267000D02*
Y1348254D01*
X5875627D01*
X5889169Y1334711D01*
Y1307627D01*
X5875627Y1294085D01*
X5835000D01*
X5862085D02*
X5889169Y1267000D01*
X5956881D02*
Y1348254D01*
X5916254Y1307627D01*
X5970423D01*
X5997508Y1280542D02*
X6011050Y1267000D01*
X6038134D01*
X6051677Y1280542D01*
Y1334711D01*
X6038134Y1348254D01*
X6011050D01*
X5997508Y1334711D01*
Y1321169D01*
X6011050Y1307627D01*
X6051677D01*
X5835000Y1390000D02*
Y1471254D01*
X5875627D01*
X5889169Y1457711D01*
Y1430627D01*
X5875627Y1417085D01*
X5835000D01*
X5862085D02*
X5889169Y1390000D01*
X5956881D02*
Y1471254D01*
X5916254Y1430627D01*
X5970423D01*
X5997508Y1457711D02*
X6011050Y1471254D01*
X6038134D01*
X6051677Y1457711D01*
Y1444169D01*
X6038134Y1430627D01*
X6051677Y1417085D01*
Y1403542D01*
X6038134Y1390000D01*
X6011050D01*
X5997508Y1403542D01*
Y1417085D01*
X6011050Y1430627D01*
X5997508Y1444169D01*
Y1457711D01*
X6011050Y1430627D02*
X6038134D01*
X5270000Y1269999D02*
Y1351253D01*
X5310627D01*
X5324169Y1337711D01*
Y1310626D01*
X5310627Y1297084D01*
X5270000D01*
X5297085D02*
X5324169Y1269999D01*
X5391881D02*
Y1351253D01*
X5351254Y1310626D01*
X5405423D01*
X5432508Y1351253D02*
X5486677D01*
Y1337711D01*
X5432508Y1283542D01*
Y1269999D01*
X5270000Y1392499D02*
Y1473753D01*
X5310627D01*
X5324169Y1460211D01*
Y1433126D01*
X5310627Y1419584D01*
X5270000D01*
X5297085D02*
X5324169Y1392499D01*
X5391881D02*
Y1473753D01*
X5351254Y1433126D01*
X5405423D01*
X5486677Y1473753D02*
X5459592Y1460211D01*
X5432508Y1433126D01*
Y1406042D01*
X5446050Y1392499D01*
X5473135D01*
X5486677Y1406042D01*
Y1419584D01*
X5473135Y1433126D01*
X5432508D01*
X5835000Y775000D02*
Y856254D01*
X5875627D01*
X5889169Y842711D01*
Y815627D01*
X5875627Y802085D01*
X5835000D01*
X5862085D02*
X5889169Y775000D01*
X5956881D02*
Y856254D01*
X5916254Y815627D01*
X5970423D01*
X6051677Y856254D02*
X5997508D01*
Y815627D01*
X6024592Y829169D01*
X6038134D01*
X6051677Y815627D01*
Y788542D01*
X6038134Y775000D01*
X6011050D01*
X5997508Y788542D01*
X5270000Y780000D02*
Y861254D01*
X5310627D01*
X5324169Y847711D01*
Y820627D01*
X5310627Y807084D01*
X5270000D01*
X5297085D02*
X5324169Y780000D01*
X5391881D02*
Y861254D01*
X5351254Y820627D01*
X5405423D01*
X5473135Y780000D02*
Y861254D01*
X5432508Y820627D01*
X5486677D01*
X3105000Y3627500D02*
Y3708754D01*
X3145627D01*
X3159169Y3695211D01*
Y3668127D01*
X3145627Y3654585D01*
X3105000D01*
X3132084D02*
X3159169Y3627500D01*
X3226881D02*
Y3708754D01*
X3186254Y3668127D01*
X3240423D01*
X3267508Y3627500D02*
X3294592D01*
X3281050D01*
Y3708754D01*
X3267508Y3695211D01*
X3080000Y3170000D02*
Y3251254D01*
X3120627D01*
X3134169Y3237711D01*
Y3210627D01*
X3120627Y3197085D01*
X3080000D01*
X3107084D02*
X3134169Y3170000D01*
X3201881D02*
Y3251254D01*
X3161254Y3210627D01*
X3215423D01*
X3242508Y3237711D02*
X3256050Y3251254D01*
X3283134D01*
X3296677Y3237711D01*
Y3183542D01*
X3283134Y3170000D01*
X3256050D01*
X3242508Y3183542D01*
Y3237711D01*
X2815000Y4432500D02*
Y4513754D01*
X2855627D01*
X2869169Y4500211D01*
Y4473127D01*
X2855627Y4459584D01*
X2815000D01*
X2842084D02*
X2869169Y4432500D01*
X2896254Y4500211D02*
X2909796Y4513754D01*
X2936881D01*
X2950423Y4500211D01*
Y4486669D01*
X2936881Y4473127D01*
X2923338D01*
X2936881D01*
X2950423Y4459584D01*
Y4446042D01*
X2936881Y4432500D01*
X2909796D01*
X2896254Y4446042D01*
X2977508D02*
X2991050Y4432500D01*
X3018134D01*
X3031677Y4446042D01*
Y4500211D01*
X3018134Y4513754D01*
X2991050D01*
X2977508Y4500211D01*
Y4486669D01*
X2991050Y4473127D01*
X3031677D01*
X3135000Y6340000D02*
Y6421254D01*
X3175627D01*
X3189169Y6407711D01*
Y6380627D01*
X3175627Y6367085D01*
X3135000D01*
X3162085D02*
X3189169Y6340000D01*
X3216254Y6407711D02*
X3229796Y6421254D01*
X3256881D01*
X3270423Y6407711D01*
Y6394169D01*
X3256881Y6380627D01*
X3243338D01*
X3256881D01*
X3270423Y6367085D01*
Y6353542D01*
X3256881Y6340000D01*
X3229796D01*
X3216254Y6353542D01*
X3297508Y6407711D02*
X3311050Y6421254D01*
X3338135D01*
X3351677Y6407711D01*
Y6394169D01*
X3338135Y6380627D01*
X3351677Y6367085D01*
Y6353542D01*
X3338135Y6340000D01*
X3311050D01*
X3297508Y6353542D01*
Y6367085D01*
X3311050Y6380627D01*
X3297508Y6394169D01*
Y6407711D01*
X3311050Y6380627D02*
X3338135D01*
X6625000Y8925000D02*
Y9006254D01*
X6665627D01*
X6679169Y8992711D01*
Y8965627D01*
X6665627Y8952084D01*
X6625000D01*
X6652085D02*
X6679169Y8925000D01*
X6706254Y8992711D02*
X6719796Y9006254D01*
X6746881D01*
X6760423Y8992711D01*
Y8979169D01*
X6746881Y8965627D01*
X6733339D01*
X6746881D01*
X6760423Y8952084D01*
Y8938542D01*
X6746881Y8925000D01*
X6719796D01*
X6706254Y8938542D01*
X6787508Y9006254D02*
X6841677D01*
Y8992711D01*
X6787508Y8938542D01*
Y8925000D01*
X6150000Y8924999D02*
Y9006253D01*
X6190627D01*
X6204169Y8992710D01*
Y8965626D01*
X6190627Y8952083D01*
X6150000D01*
X6177085D02*
X6204169Y8924999D01*
X6231254Y8992710D02*
X6244796Y9006253D01*
X6271881D01*
X6285423Y8992710D01*
Y8979168D01*
X6271881Y8965626D01*
X6258339D01*
X6271881D01*
X6285423Y8952083D01*
Y8938541D01*
X6271881Y8924999D01*
X6244796D01*
X6231254Y8938541D01*
X6366677Y9006253D02*
X6339592Y8992710D01*
X6312508Y8965626D01*
Y8938541D01*
X6326050Y8924999D01*
X6353135D01*
X6366677Y8938541D01*
Y8952083D01*
X6353135Y8965626D01*
X6312508D01*
X6625000Y9050000D02*
Y9131254D01*
X6665627D01*
X6679169Y9117711D01*
Y9090627D01*
X6665627Y9077084D01*
X6625000D01*
X6652085D02*
X6679169Y9050000D01*
X6706254Y9117711D02*
X6719796Y9131254D01*
X6746881D01*
X6760423Y9117711D01*
Y9104169D01*
X6746881Y9090627D01*
X6733339D01*
X6746881D01*
X6760423Y9077084D01*
Y9063542D01*
X6746881Y9050000D01*
X6719796D01*
X6706254Y9063542D01*
X6841677Y9131254D02*
X6787508D01*
Y9090627D01*
X6814592Y9104169D01*
X6828135D01*
X6841677Y9090627D01*
Y9063542D01*
X6828135Y9050000D01*
X6801050D01*
X6787508Y9063542D01*
X6150000Y9049999D02*
Y9131253D01*
X6190627D01*
X6204169Y9117710D01*
Y9090625D01*
X6190627Y9077083D01*
X6150000D01*
X6177085D02*
X6204169Y9049999D01*
X6231254Y9117710D02*
X6244796Y9131253D01*
X6271881D01*
X6285423Y9117710D01*
Y9104168D01*
X6271881Y9090625D01*
X6258339D01*
X6271881D01*
X6285423Y9077083D01*
Y9063541D01*
X6271881Y9049999D01*
X6244796D01*
X6231254Y9063541D01*
X6353135Y9049999D02*
Y9131253D01*
X6312508Y9090625D01*
X6366677D01*
X6625000Y8425000D02*
Y8506254D01*
X6665627D01*
X6679169Y8492711D01*
Y8465627D01*
X6665627Y8452084D01*
X6625000D01*
X6652085D02*
X6679169Y8425000D01*
X6706254Y8492711D02*
X6719796Y8506254D01*
X6746881D01*
X6760423Y8492711D01*
Y8479169D01*
X6746881Y8465627D01*
X6733339D01*
X6746881D01*
X6760423Y8452084D01*
Y8438542D01*
X6746881Y8425000D01*
X6719796D01*
X6706254Y8438542D01*
X6787508Y8492711D02*
X6801050Y8506254D01*
X6828135D01*
X6841677Y8492711D01*
Y8479169D01*
X6828135Y8465627D01*
X6814592D01*
X6828135D01*
X6841677Y8452084D01*
Y8438542D01*
X6828135Y8425000D01*
X6801050D01*
X6787508Y8438542D01*
X6150000Y8425000D02*
Y8506254D01*
X6190627D01*
X6204169Y8492711D01*
Y8465627D01*
X6190627Y8452084D01*
X6150000D01*
X6177085D02*
X6204169Y8425000D01*
X6231254Y8492711D02*
X6244796Y8506254D01*
X6271881D01*
X6285423Y8492711D01*
Y8479169D01*
X6271881Y8465627D01*
X6258339D01*
X6271881D01*
X6285423Y8452084D01*
Y8438542D01*
X6271881Y8425000D01*
X6244796D01*
X6231254Y8438542D01*
X6366677Y8425000D02*
X6312508D01*
X6366677Y8479169D01*
Y8492711D01*
X6353135Y8506254D01*
X6326050D01*
X6312508Y8492711D01*
X6625000Y8550000D02*
Y8631254D01*
X6665627D01*
X6679169Y8617711D01*
Y8590627D01*
X6665627Y8577084D01*
X6625000D01*
X6652085D02*
X6679169Y8550000D01*
X6706254Y8617711D02*
X6719796Y8631254D01*
X6746881D01*
X6760423Y8617711D01*
Y8604169D01*
X6746881Y8590627D01*
X6733339D01*
X6746881D01*
X6760423Y8577084D01*
Y8563542D01*
X6746881Y8550000D01*
X6719796D01*
X6706254Y8563542D01*
X6787508Y8550000D02*
X6814592D01*
X6801050D01*
Y8631254D01*
X6787508Y8617711D01*
X6150000Y8550000D02*
Y8631254D01*
X6190627D01*
X6204169Y8617711D01*
Y8590626D01*
X6190627Y8577084D01*
X6150000D01*
X6177085D02*
X6204169Y8550000D01*
X6231254Y8617711D02*
X6244796Y8631254D01*
X6271881D01*
X6285423Y8617711D01*
Y8604169D01*
X6271881Y8590626D01*
X6258339D01*
X6271881D01*
X6285423Y8577084D01*
Y8563542D01*
X6271881Y8550000D01*
X6244796D01*
X6231254Y8563542D01*
X6312508Y8617711D02*
X6326050Y8631254D01*
X6353135D01*
X6366677Y8617711D01*
Y8563542D01*
X6353135Y8550000D01*
X6326050D01*
X6312508Y8563542D01*
Y8617711D01*
X6625000Y8675000D02*
Y8756254D01*
X6665627D01*
X6679169Y8742711D01*
Y8715627D01*
X6665627Y8702084D01*
X6625000D01*
X6652085D02*
X6679169Y8675000D01*
X6760423D02*
X6706254D01*
X6760423Y8729169D01*
Y8742711D01*
X6746881Y8756254D01*
X6719796D01*
X6706254Y8742711D01*
X6787508Y8688542D02*
X6801050Y8675000D01*
X6828135D01*
X6841677Y8688542D01*
Y8742711D01*
X6828135Y8756254D01*
X6801050D01*
X6787508Y8742711D01*
Y8729169D01*
X6801050Y8715627D01*
X6841677D01*
X6150000Y8674999D02*
Y8756253D01*
X6190627D01*
X6204169Y8742711D01*
Y8715626D01*
X6190627Y8702084D01*
X6150000D01*
X6177085D02*
X6204169Y8674999D01*
X6285423D02*
X6231254D01*
X6285423Y8729168D01*
Y8742711D01*
X6271881Y8756253D01*
X6244796D01*
X6231254Y8742711D01*
X6312508D02*
X6326050Y8756253D01*
X6353135D01*
X6366677Y8742711D01*
Y8729168D01*
X6353135Y8715626D01*
X6366677Y8702084D01*
Y8688542D01*
X6353135Y8674999D01*
X6326050D01*
X6312508Y8688542D01*
Y8702084D01*
X6326050Y8715626D01*
X6312508Y8729168D01*
Y8742711D01*
X6326050Y8715626D02*
X6353135D01*
X6937500Y2697500D02*
X6856246D01*
Y2738127D01*
X6869789Y2751669D01*
X6896873D01*
X6910415Y2738127D01*
Y2697500D01*
Y2724585D02*
X6937500Y2751669D01*
Y2778754D02*
Y2805838D01*
Y2792296D01*
X6856246D01*
X6869789Y2778754D01*
Y2846465D02*
X6856246Y2860007D01*
Y2887092D01*
X6869789Y2900634D01*
X6883331D01*
X6896873Y2887092D01*
Y2873550D01*
Y2887092D01*
X6910415Y2900634D01*
X6923958D01*
X6937500Y2887092D01*
Y2860007D01*
X6923958Y2846465D01*
X6922500Y3877500D02*
X6841246D01*
Y3918127D01*
X6854789Y3931669D01*
X6881873D01*
X6895415Y3918127D01*
Y3877500D01*
Y3904585D02*
X6922500Y3931669D01*
Y3958754D02*
Y3985838D01*
Y3972296D01*
X6841246D01*
X6854789Y3958754D01*
X6922500Y4080634D02*
Y4026465D01*
X6868331Y4080634D01*
X6854789D01*
X6841246Y4067092D01*
Y4040007D01*
X6854789Y4026465D01*
X6922500Y1340000D02*
X6841246D01*
Y1380627D01*
X6854789Y1394169D01*
X6881873D01*
X6895415Y1380627D01*
Y1340000D01*
Y1367085D02*
X6922500Y1394169D01*
Y1421254D02*
Y1448338D01*
Y1434796D01*
X6841246D01*
X6854789Y1421254D01*
X6922500Y1488965D02*
Y1516050D01*
Y1502508D01*
X6841246D01*
X6854789Y1488965D01*
X5050000Y6575000D02*
Y6656254D01*
X5090627D01*
X5104169Y6642711D01*
Y6615627D01*
X5090627Y6602085D01*
X5050000D01*
X5077085D02*
X5104169Y6575000D01*
X5131254D02*
X5158338D01*
X5144796D01*
Y6656254D01*
X5131254Y6642711D01*
X5198965D02*
X5212507Y6656254D01*
X5239592D01*
X5253134Y6642711D01*
Y6588542D01*
X5239592Y6575000D01*
X5212507D01*
X5198965Y6588542D01*
Y6642711D01*
X5000000Y7950000D02*
Y8031254D01*
X5040627D01*
X5054169Y8017711D01*
Y7990627D01*
X5040627Y7977085D01*
X5000000D01*
X5027084D02*
X5054169Y7950000D01*
X5081254Y7963542D02*
X5094796Y7950000D01*
X5121881D01*
X5135423Y7963542D01*
Y8017711D01*
X5121881Y8031254D01*
X5094796D01*
X5081254Y8017711D01*
Y8004169D01*
X5094796Y7990627D01*
X5135423D01*
X5050000Y6450000D02*
Y6531254D01*
X5090627D01*
X5104169Y6517711D01*
Y6490627D01*
X5090627Y6477085D01*
X5050000D01*
X5077084D02*
X5104169Y6450000D01*
X5131254Y6517711D02*
X5144796Y6531254D01*
X5171880D01*
X5185423Y6517711D01*
Y6504169D01*
X5171880Y6490627D01*
X5185423Y6477085D01*
Y6463542D01*
X5171880Y6450000D01*
X5144796D01*
X5131254Y6463542D01*
Y6477085D01*
X5144796Y6490627D01*
X5131254Y6504169D01*
Y6517711D01*
X5144796Y6490627D02*
X5171880D01*
X5000000Y7825000D02*
Y7906254D01*
X5040627D01*
X5054169Y7892711D01*
Y7865627D01*
X5040627Y7852085D01*
X5000000D01*
X5027084D02*
X5054169Y7825000D01*
X5081254Y7906254D02*
X5135423D01*
Y7892711D01*
X5081254Y7838542D01*
Y7825000D01*
X5050000Y6325000D02*
Y6406254D01*
X5090627D01*
X5104169Y6392711D01*
Y6365627D01*
X5090627Y6352085D01*
X5050000D01*
X5077084D02*
X5104169Y6325000D01*
X5185423Y6406254D02*
X5158338Y6392711D01*
X5131254Y6365627D01*
Y6338542D01*
X5144796Y6325000D01*
X5171880D01*
X5185423Y6338542D01*
Y6352085D01*
X5171880Y6365627D01*
X5131254D01*
X5000000Y7700000D02*
Y7781254D01*
X5040627D01*
X5054169Y7767711D01*
Y7740627D01*
X5040627Y7727085D01*
X5000000D01*
X5027084D02*
X5054169Y7700000D01*
X5135423Y7781254D02*
X5081254D01*
Y7740627D01*
X5108338Y7754169D01*
X5121881D01*
X5135423Y7740627D01*
Y7713542D01*
X5121881Y7700000D01*
X5094796D01*
X5081254Y7713542D01*
X5050000Y6200000D02*
Y6281254D01*
X5090627D01*
X5104169Y6267711D01*
Y6240627D01*
X5090627Y6227085D01*
X5050000D01*
X5077084D02*
X5104169Y6200000D01*
X5171880D02*
Y6281254D01*
X5131254Y6240627D01*
X5185423D01*
X5000000Y7575000D02*
Y7656254D01*
X5040627D01*
X5054169Y7642711D01*
Y7615627D01*
X5040627Y7602085D01*
X5000000D01*
X5027084D02*
X5054169Y7575000D01*
X5081254Y7642711D02*
X5094796Y7656254D01*
X5121881D01*
X5135423Y7642711D01*
Y7629169D01*
X5121881Y7615627D01*
X5108338D01*
X5121881D01*
X5135423Y7602085D01*
Y7588542D01*
X5121881Y7575000D01*
X5094796D01*
X5081254Y7588542D01*
X5050000Y6075000D02*
Y6156254D01*
X5090627D01*
X5104169Y6142711D01*
Y6115627D01*
X5090627Y6102085D01*
X5050000D01*
X5077084D02*
X5104169Y6075000D01*
X5185423D02*
X5131254D01*
X5185423Y6129169D01*
Y6142711D01*
X5171880Y6156254D01*
X5144796D01*
X5131254Y6142711D01*
X5000000Y7450000D02*
Y7531254D01*
X5040627D01*
X5054169Y7517711D01*
Y7490627D01*
X5040627Y7477085D01*
X5000000D01*
X5027084D02*
X5054169Y7450000D01*
X5081254D02*
X5108338D01*
X5094796D01*
Y7531254D01*
X5081254Y7517711D01*
X5614169Y1034542D02*
Y1088711D01*
X5600627Y1102254D01*
X5573542D01*
X5560000Y1088711D01*
Y1034542D01*
X5573542Y1021000D01*
X5600627D01*
X5587084Y1048085D02*
X5614169Y1021000D01*
X5600627D02*
X5614169Y1034542D01*
X5641254Y1021000D02*
X5668338D01*
X5654796D01*
Y1102254D01*
X5641254Y1088711D01*
X5763134Y1021000D02*
X5708965D01*
X5763134Y1075169D01*
Y1088711D01*
X5749592Y1102254D01*
X5722507D01*
X5708965Y1088711D01*
X5614169Y1157542D02*
Y1211711D01*
X5600627Y1225254D01*
X5573542D01*
X5560000Y1211711D01*
Y1157542D01*
X5573542Y1144000D01*
X5600627D01*
X5587084Y1171085D02*
X5614169Y1144000D01*
X5600627D02*
X5614169Y1157542D01*
X5641254Y1144000D02*
X5668338D01*
X5654796D01*
Y1225254D01*
X5641254Y1211711D01*
X5708965Y1144000D02*
X5736049D01*
X5722507D01*
Y1225254D01*
X5708965Y1211711D01*
X5614169Y1280542D02*
Y1334711D01*
X5600627Y1348254D01*
X5573542D01*
X5560000Y1334711D01*
Y1280542D01*
X5573542Y1267000D01*
X5600627D01*
X5587084Y1294085D02*
X5614169Y1267000D01*
X5600627D02*
X5614169Y1280542D01*
X5641254Y1267000D02*
X5668338D01*
X5654796D01*
Y1348254D01*
X5641254Y1334711D01*
X5708965D02*
X5722507Y1348254D01*
X5749592D01*
X5763134Y1334711D01*
Y1280542D01*
X5749592Y1267000D01*
X5722507D01*
X5708965Y1280542D01*
Y1334711D01*
X5614169Y1403542D02*
Y1457711D01*
X5600627Y1471254D01*
X5573542D01*
X5560000Y1457711D01*
Y1403542D01*
X5573542Y1390000D01*
X5600627D01*
X5587084Y1417085D02*
X5614169Y1390000D01*
X5600627D02*
X5614169Y1403542D01*
X5641254D02*
X5654796Y1390000D01*
X5681880D01*
X5695423Y1403542D01*
Y1457711D01*
X5681880Y1471254D01*
X5654796D01*
X5641254Y1457711D01*
Y1444169D01*
X5654796Y1430627D01*
X5695423D01*
X5614169Y788542D02*
Y842711D01*
X5600627Y856254D01*
X5573542D01*
X5560000Y842711D01*
Y788542D01*
X5573542Y775000D01*
X5600627D01*
X5587084Y802085D02*
X5614169Y775000D01*
X5600627D02*
X5614169Y788542D01*
X5641254Y842711D02*
X5654796Y856254D01*
X5681880D01*
X5695423Y842711D01*
Y829169D01*
X5681880Y815627D01*
X5695423Y802085D01*
Y788542D01*
X5681880Y775000D01*
X5654796D01*
X5641254Y788542D01*
Y802085D01*
X5654796Y815627D01*
X5641254Y829169D01*
Y842711D01*
X5654796Y815627D02*
X5681880D01*
X5614169Y911542D02*
Y965711D01*
X5600627Y979254D01*
X5573542D01*
X5560000Y965711D01*
Y911542D01*
X5573542Y898000D01*
X5600627D01*
X5587084Y925085D02*
X5614169Y898000D01*
X5600627D02*
X5614169Y911542D01*
X5641254Y979254D02*
X5695423D01*
Y965711D01*
X5641254Y911542D01*
Y898000D01*
X6479169Y8938542D02*
Y8992711D01*
X6465627Y9006254D01*
X6438542D01*
X6425000Y8992711D01*
Y8938542D01*
X6438542Y8925000D01*
X6465627D01*
X6452085Y8952084D02*
X6479169Y8925000D01*
X6465627D02*
X6479169Y8938542D01*
X6560423Y9006254D02*
X6533338Y8992711D01*
X6506254Y8965627D01*
Y8938542D01*
X6519796Y8925000D01*
X6546881D01*
X6560423Y8938542D01*
Y8952084D01*
X6546881Y8965627D01*
X6506254D01*
X6479169Y9063542D02*
Y9117711D01*
X6465627Y9131254D01*
X6438542D01*
X6425000Y9117711D01*
Y9063542D01*
X6438542Y9050000D01*
X6465627D01*
X6452085Y9077084D02*
X6479169Y9050000D01*
X6465627D02*
X6479169Y9063542D01*
X6560423Y9131254D02*
X6506254D01*
Y9090627D01*
X6533338Y9104169D01*
X6546881D01*
X6560423Y9090627D01*
Y9063542D01*
X6546881Y9050000D01*
X6519796D01*
X6506254Y9063542D01*
X6479169Y8438542D02*
Y8492711D01*
X6465627Y8506254D01*
X6438542D01*
X6425000Y8492711D01*
Y8438542D01*
X6438542Y8425000D01*
X6465627D01*
X6452085Y8452084D02*
X6479169Y8425000D01*
X6465627D02*
X6479169Y8438542D01*
X6546881Y8425000D02*
Y8506254D01*
X6506254Y8465627D01*
X6560423D01*
X6479169Y8563542D02*
Y8617711D01*
X6465627Y8631254D01*
X6438542D01*
X6425000Y8617711D01*
Y8563542D01*
X6438542Y8550000D01*
X6465627D01*
X6452085Y8577084D02*
X6479169Y8550000D01*
X6465627D02*
X6479169Y8563542D01*
X6506254Y8617711D02*
X6519796Y8631254D01*
X6546881D01*
X6560423Y8617711D01*
Y8604169D01*
X6546881Y8590627D01*
X6533338D01*
X6546881D01*
X6560423Y8577084D01*
Y8563542D01*
X6546881Y8550000D01*
X6519796D01*
X6506254Y8563542D01*
X6479169Y8688542D02*
Y8742711D01*
X6465627Y8756254D01*
X6438542D01*
X6425000Y8742711D01*
Y8688542D01*
X6438542Y8675000D01*
X6465627D01*
X6452085Y8702084D02*
X6479169Y8675000D01*
X6465627D02*
X6479169Y8688542D01*
X6560423Y8675000D02*
X6506254D01*
X6560423Y8729169D01*
Y8742711D01*
X6546881Y8756254D01*
X6519796D01*
X6506254Y8742711D01*
X6479169Y8813542D02*
Y8867711D01*
X6465627Y8881254D01*
X6438542D01*
X6425000Y8867711D01*
Y8813542D01*
X6438542Y8800000D01*
X6465627D01*
X6452085Y8827084D02*
X6479169Y8800000D01*
X6465627D02*
X6479169Y8813542D01*
X6506254Y8800000D02*
X6533338D01*
X6519796D01*
Y8881254D01*
X6506254Y8867711D01*
X1289510Y9766090D02*
Y9847344D01*
X1330137D01*
X1343679Y9833801D01*
Y9806717D01*
X1330137Y9793174D01*
X1289510D01*
X1424933Y9766090D02*
X1370764D01*
X1424933Y9820259D01*
Y9833801D01*
X1411391Y9847344D01*
X1384306D01*
X1370764Y9833801D01*
X1492644Y9766090D02*
Y9847344D01*
X1452018Y9806717D01*
X1506187D01*
X2305510Y9766090D02*
Y9847344D01*
X2346137D01*
X2359679Y9833801D01*
Y9806717D01*
X2346137Y9793174D01*
X2305510D01*
X2440933Y9766090D02*
X2386764D01*
X2440933Y9820259D01*
Y9833801D01*
X2427391Y9847344D01*
X2400306D01*
X2386764Y9833801D01*
X2468018D02*
X2481560Y9847344D01*
X2508644D01*
X2522187Y9833801D01*
Y9820259D01*
X2508644Y9806717D01*
X2495102D01*
X2508644D01*
X2522187Y9793174D01*
Y9779632D01*
X2508644Y9766090D01*
X2481560D01*
X2468018Y9779632D01*
X3075510Y2808090D02*
Y2889344D01*
X3116137D01*
X3129679Y2875801D01*
Y2848717D01*
X3116137Y2835174D01*
X3075510D01*
X3210933Y2808090D02*
X3156764D01*
X3210933Y2862259D01*
Y2875801D01*
X3197391Y2889344D01*
X3170306D01*
X3156764Y2875801D01*
X3292187Y2808090D02*
X3238018D01*
X3292187Y2862259D01*
Y2875801D01*
X3278644Y2889344D01*
X3251560D01*
X3238018Y2875801D01*
X650000Y5150000D02*
Y5231254D01*
X690627D01*
X704169Y5217711D01*
Y5190627D01*
X690627Y5177085D01*
X650000D01*
X785423Y5150000D02*
X731254D01*
X785423Y5204169D01*
Y5217711D01*
X771881Y5231254D01*
X744796D01*
X731254Y5217711D01*
X812508Y5150000D02*
X839592D01*
X826050D01*
Y5231254D01*
X812508Y5217711D01*
X122500Y1187500D02*
X41246D01*
Y1228127D01*
X54789Y1241669D01*
X81873D01*
X95415Y1228127D01*
Y1187500D01*
X122500Y1322923D02*
Y1268754D01*
X68331Y1322923D01*
X54789D01*
X41246Y1309381D01*
Y1282296D01*
X54789Y1268754D01*
Y1350008D02*
X41246Y1363550D01*
Y1390635D01*
X54789Y1404177D01*
X108958D01*
X122500Y1390635D01*
Y1363550D01*
X108958Y1350008D01*
X54789D01*
X122500Y1535000D02*
X41246D01*
Y1575627D01*
X54789Y1589169D01*
X81873D01*
X95415Y1575627D01*
Y1535000D01*
X122500Y1616254D02*
Y1643338D01*
Y1629796D01*
X41246D01*
X54789Y1616254D01*
X108958Y1683965D02*
X122500Y1697507D01*
Y1724592D01*
X108958Y1738134D01*
X54789D01*
X41246Y1724592D01*
Y1697507D01*
X54789Y1683965D01*
X68331D01*
X81873Y1697507D01*
Y1738134D01*
X400000Y6675000D02*
Y6756254D01*
X440627D01*
X454169Y6742711D01*
Y6715627D01*
X440627Y6702085D01*
X400000D01*
X481254Y6675000D02*
X508338D01*
X494796D01*
Y6756254D01*
X481254Y6742711D01*
X548965D02*
X562507Y6756254D01*
X589592D01*
X603134Y6742711D01*
Y6729169D01*
X589592Y6715627D01*
X603134Y6702085D01*
Y6688542D01*
X589592Y6675000D01*
X562507D01*
X548965Y6688542D01*
Y6702085D01*
X562507Y6715627D01*
X548965Y6729169D01*
Y6742711D01*
X562507Y6715627D02*
X589592D01*
X122500Y1882500D02*
X41246D01*
Y1923126D01*
X54789Y1936669D01*
X81873D01*
X95415Y1923126D01*
Y1882500D01*
X122500Y1963754D02*
Y1990838D01*
Y1977296D01*
X41246D01*
X54789Y1963754D01*
X41246Y2031465D02*
Y2085634D01*
X54789D01*
X108958Y2031465D01*
X122500D01*
Y2230000D02*
X41246D01*
Y2270626D01*
X54789Y2284169D01*
X81873D01*
X95415Y2270626D01*
Y2230000D01*
X122500Y2311253D02*
Y2338338D01*
Y2324796D01*
X41246D01*
X54789Y2311253D01*
X41246Y2433134D02*
X54789Y2406049D01*
X81873Y2378965D01*
X108958D01*
X122500Y2392507D01*
Y2419592D01*
X108958Y2433134D01*
X95415D01*
X81873Y2419592D01*
Y2378965D01*
X122500Y2577500D02*
X41246D01*
Y2618126D01*
X54789Y2631669D01*
X81873D01*
X95415Y2618126D01*
Y2577500D01*
X122500Y2658753D02*
Y2685838D01*
Y2672296D01*
X41246D01*
X54789Y2658753D01*
X122500Y2767091D02*
X41246D01*
X81873Y2726465D01*
Y2780634D01*
X122500Y2924999D02*
X41246D01*
Y2965626D01*
X54789Y2979169D01*
X81873D01*
X95415Y2965626D01*
Y2924999D01*
X122500Y3006253D02*
Y3033338D01*
Y3019796D01*
X41246D01*
X54789Y3006253D01*
X122500Y3128134D02*
Y3073965D01*
X68331Y3128134D01*
X54789D01*
X41246Y3114591D01*
Y3087507D01*
X54789Y3073965D01*
X3862500Y3292500D02*
Y3373754D01*
X3903127D01*
X3916669Y3360211D01*
Y3333127D01*
X3903127Y3319584D01*
X3862500D01*
X3943754Y3292500D02*
X3970838D01*
X3957296D01*
Y3373754D01*
X3943754Y3360211D01*
X4011465Y3292500D02*
X4038550D01*
X4025007D01*
Y3373754D01*
X4011465Y3360211D01*
X122500Y3272499D02*
X41246D01*
Y3313126D01*
X54789Y3326668D01*
X81873D01*
X95415Y3313126D01*
Y3272499D01*
X122500Y3353753D02*
Y3380838D01*
Y3367296D01*
X41246D01*
X54789Y3353753D01*
Y3421465D02*
X41246Y3435007D01*
Y3462091D01*
X54789Y3475634D01*
X108958D01*
X122500Y3462091D01*
Y3435007D01*
X108958Y3421465D01*
X54789D01*
X122500Y3619999D02*
X41246D01*
Y3660626D01*
X54789Y3674168D01*
X81873D01*
X95415Y3660626D01*
Y3619999D01*
X54789Y3701253D02*
X41246Y3714795D01*
Y3741880D01*
X54789Y3755422D01*
X68331D01*
X81873Y3741880D01*
X95415Y3755422D01*
X108958D01*
X122500Y3741880D01*
Y3714795D01*
X108958Y3701253D01*
X95415D01*
X81873Y3714795D01*
X68331Y3701253D01*
X54789D01*
X81873Y3714795D02*
Y3741880D01*
X6280000Y5085000D02*
Y5166254D01*
X6320627D01*
X6334169Y5152711D01*
Y5125627D01*
X6320627Y5112085D01*
X6280000D01*
X6361254Y5166254D02*
X6415423D01*
Y5152711D01*
X6361254Y5098542D01*
Y5085000D01*
X757500Y3997500D02*
Y4078754D01*
X798127D01*
X811669Y4065211D01*
Y4038127D01*
X798127Y4024585D01*
X757500D01*
X892923Y4078754D02*
X865838Y4065211D01*
X838754Y4038127D01*
Y4011042D01*
X852296Y3997500D01*
X879381D01*
X892923Y4011042D01*
Y4024585D01*
X879381Y4038127D01*
X838754D01*
X6602500Y5090000D02*
Y5171254D01*
X6643127D01*
X6656669Y5157711D01*
Y5130627D01*
X6643127Y5117085D01*
X6602500D01*
X6737923Y5171254D02*
X6683754D01*
Y5130627D01*
X6710838Y5144169D01*
X6724381D01*
X6737923Y5130627D01*
Y5103542D01*
X6724381Y5090000D01*
X6697296D01*
X6683754Y5103542D01*
X4025000Y6800000D02*
Y6881254D01*
X4065627D01*
X4079169Y6867711D01*
Y6840627D01*
X4065627Y6827085D01*
X4025000D01*
X4106254Y6867711D02*
X4119796Y6881254D01*
X4146881D01*
X4160423Y6867711D01*
Y6854169D01*
X4146881Y6840627D01*
X4133338D01*
X4146881D01*
X4160423Y6827085D01*
Y6813542D01*
X4146881Y6800000D01*
X4119796D01*
X4106254Y6813542D01*
X6600000Y8150000D02*
Y8231254D01*
X6640627D01*
X6654169Y8217711D01*
Y8190627D01*
X6640627Y8177084D01*
X6600000D01*
X6735423Y8150000D02*
X6681254D01*
X6735423Y8204169D01*
Y8217711D01*
X6721881Y8231254D01*
X6694796D01*
X6681254Y8217711D01*
X701650Y6362077D02*
Y6280823D01*
X742277D01*
X755819Y6294366D01*
Y6348535D01*
X742277Y6362077D01*
X701650D01*
X823531Y6280823D02*
Y6362077D01*
X782904Y6321450D01*
X837073D01*
X1041930Y6361793D02*
Y6280539D01*
X1082556D01*
X1096099Y6294081D01*
Y6348250D01*
X1082556Y6361793D01*
X1041930D01*
X1123183Y6348250D02*
X1136726Y6361793D01*
X1163810D01*
X1177352Y6348250D01*
Y6334708D01*
X1163810Y6321166D01*
X1150268D01*
X1163810D01*
X1177352Y6307624D01*
Y6294081D01*
X1163810Y6280539D01*
X1136726D01*
X1123183Y6294081D01*
X1381651Y6362077D02*
Y6280823D01*
X1422277D01*
X1435820Y6294366D01*
Y6348535D01*
X1422277Y6362077D01*
X1381651D01*
X1517073Y6280823D02*
X1462904D01*
X1517073Y6334992D01*
Y6348535D01*
X1503531Y6362077D01*
X1476447D01*
X1462904Y6348535D01*
X1721650Y6362077D02*
Y6280823D01*
X1762277D01*
X1775819Y6294366D01*
Y6348535D01*
X1762277Y6362077D01*
X1721650D01*
X1802904Y6280823D02*
X1829989D01*
X1816446D01*
Y6362077D01*
X1802904Y6348535D01*
X2391669Y2690211D02*
X2378127Y2703754D01*
X2351042D01*
X2337500Y2690211D01*
Y2636042D01*
X2351042Y2622500D01*
X2378127D01*
X2391669Y2636042D01*
X2472923Y2622500D02*
X2418754D01*
X2472923Y2676669D01*
Y2690211D01*
X2459381Y2703754D01*
X2432296D01*
X2418754Y2690211D01*
X2500008Y2703754D02*
X2554177D01*
Y2690211D01*
X2500008Y2636042D01*
Y2622500D01*
X2391669Y2822711D02*
X2378127Y2836254D01*
X2351042D01*
X2337500Y2822711D01*
Y2768542D01*
X2351042Y2755000D01*
X2378127D01*
X2391669Y2768542D01*
X2472923Y2755000D02*
X2418754D01*
X2472923Y2809169D01*
Y2822711D01*
X2459381Y2836254D01*
X2432296D01*
X2418754Y2822711D01*
X2554177Y2836254D02*
X2527092Y2822711D01*
X2500008Y2795627D01*
Y2768542D01*
X2513550Y2755000D01*
X2540634D01*
X2554177Y2768542D01*
Y2782084D01*
X2540634Y2795627D01*
X2500008D01*
X3021669Y3992711D02*
X3008127Y4006254D01*
X2981042D01*
X2967500Y3992711D01*
Y3938542D01*
X2981042Y3925000D01*
X3008127D01*
X3021669Y3938542D01*
X3048754Y3925000D02*
X3075838D01*
X3062296D01*
Y4006254D01*
X3048754Y3992711D01*
X3116465D02*
X3130007Y4006254D01*
X3157092D01*
X3170634Y3992711D01*
Y3979169D01*
X3157092Y3965627D01*
X3170634Y3952085D01*
Y3938542D01*
X3157092Y3925000D01*
X3130007D01*
X3116465Y3938542D01*
Y3952085D01*
X3130007Y3965627D01*
X3116465Y3979169D01*
Y3992711D01*
X3130007Y3965627D02*
X3157092D01*
X3149169Y3442711D02*
X3135627Y3456254D01*
X3108542D01*
X3095000Y3442711D01*
Y3388542D01*
X3108542Y3375000D01*
X3135627D01*
X3149169Y3388542D01*
X3176254Y3375000D02*
X3203338D01*
X3189796D01*
Y3456254D01*
X3176254Y3442711D01*
X3243965Y3456254D02*
X3298134D01*
Y3442711D01*
X3243965Y3388542D01*
Y3375000D01*
X2902289Y5974169D02*
X2888746Y5960627D01*
Y5933542D01*
X2902289Y5920000D01*
X2956458D01*
X2970000Y5933542D01*
Y5960627D01*
X2956458Y5974169D01*
X2970000Y6001254D02*
Y6028338D01*
Y6014796D01*
X2888746D01*
X2902289Y6001254D01*
X2888746Y6123134D02*
X2902289Y6096050D01*
X2929373Y6068965D01*
X2956458D01*
X2970000Y6082508D01*
Y6109592D01*
X2956458Y6123134D01*
X2942915D01*
X2929373Y6109592D01*
Y6068965D01*
X2719789Y5974169D02*
X2706246Y5960627D01*
Y5933542D01*
X2719789Y5920000D01*
X2773958D01*
X2787500Y5933542D01*
Y5960627D01*
X2773958Y5974169D01*
X2787500Y6001254D02*
Y6028338D01*
Y6014796D01*
X2706246D01*
X2719789Y6001254D01*
X2706246Y6123134D02*
Y6068965D01*
X2746873D01*
X2733331Y6096050D01*
Y6109592D01*
X2746873Y6123134D01*
X2773958D01*
X2787500Y6109592D01*
Y6082508D01*
X2773958Y6068965D01*
X2757289Y4804169D02*
X2743746Y4790627D01*
Y4763542D01*
X2757289Y4750000D01*
X2811458D01*
X2825000Y4763542D01*
Y4790627D01*
X2811458Y4804169D01*
X2825000Y4831254D02*
Y4858338D01*
Y4844796D01*
X2743746D01*
X2757289Y4831254D01*
X2825000Y4953134D02*
Y4898965D01*
X2770831Y4953134D01*
X2757289D01*
X2743746Y4939592D01*
Y4912507D01*
X2757289Y4898965D01*
X2907289Y4829169D02*
X2893746Y4815627D01*
Y4788542D01*
X2907289Y4775000D01*
X2961458D01*
X2975000Y4788542D01*
Y4815627D01*
X2961458Y4829169D01*
X2975000Y4856254D02*
Y4883338D01*
Y4869796D01*
X2893746D01*
X2907289Y4856254D01*
X2975000Y4923965D02*
Y4951050D01*
Y4937508D01*
X2893746D01*
X2907289Y4923965D01*
X3841669Y4200211D02*
X3828127Y4213754D01*
X3801042D01*
X3787500Y4200211D01*
Y4146042D01*
X3801042Y4132500D01*
X3828127D01*
X3841669Y4146042D01*
X3868754Y4132500D02*
X3895838D01*
X3882296D01*
Y4213754D01*
X3868754Y4200211D01*
X3936465D02*
X3950007Y4213754D01*
X3977092D01*
X3990634Y4200211D01*
Y4146042D01*
X3977092Y4132500D01*
X3950007D01*
X3936465Y4146042D01*
Y4200211D01*
X3841669Y4082711D02*
X3828127Y4096254D01*
X3801042D01*
X3787500Y4082711D01*
Y4028542D01*
X3801042Y4015000D01*
X3828127D01*
X3841669Y4028542D01*
X3868754D02*
X3882296Y4015000D01*
X3909381D01*
X3922923Y4028542D01*
Y4082711D01*
X3909381Y4096254D01*
X3882296D01*
X3868754Y4082711D01*
Y4069169D01*
X3882296Y4055627D01*
X3922923D01*
X3904169Y6667711D02*
X3890627Y6681254D01*
X3863542D01*
X3850000Y6667711D01*
Y6613542D01*
X3863542Y6600000D01*
X3890627D01*
X3904169Y6613542D01*
X3985423Y6681254D02*
X3958338Y6667711D01*
X3931254Y6640627D01*
Y6613542D01*
X3944796Y6600000D01*
X3971881D01*
X3985423Y6613542D01*
Y6627085D01*
X3971881Y6640627D01*
X3931254D01*
X3879169Y6542711D02*
X3865627Y6556254D01*
X3838542D01*
X3825000Y6542711D01*
Y6488542D01*
X3838542Y6475000D01*
X3865627D01*
X3879169Y6488542D01*
X3960423Y6556254D02*
X3906254D01*
Y6515627D01*
X3933338Y6529169D01*
X3946881D01*
X3960423Y6515627D01*
Y6488542D01*
X3946881Y6475000D01*
X3919796D01*
X3906254Y6488542D01*
X3324789Y4364169D02*
X3311246Y4350627D01*
Y4323542D01*
X3324789Y4310000D01*
X3378958D01*
X3392500Y4323542D01*
Y4350627D01*
X3378958Y4364169D01*
X3324789Y4391254D02*
X3311246Y4404796D01*
Y4431881D01*
X3324789Y4445423D01*
X3338331D01*
X3351873Y4431881D01*
Y4418338D01*
Y4431881D01*
X3365415Y4445423D01*
X3378958D01*
X3392500Y4431881D01*
Y4404796D01*
X3378958Y4391254D01*
X3182289Y4364169D02*
X3168746Y4350627D01*
Y4323542D01*
X3182289Y4310000D01*
X3236458D01*
X3250000Y4323542D01*
Y4350627D01*
X3236458Y4364169D01*
X3250000Y4445423D02*
Y4391254D01*
X3195831Y4445423D01*
X3182289D01*
X3168746Y4431881D01*
Y4404796D01*
X3182289Y4391254D01*
X3479169Y6420211D02*
X3465627Y6433754D01*
X3438542D01*
X3425000Y6420211D01*
Y6366042D01*
X3438542Y6352500D01*
X3465627D01*
X3479169Y6366042D01*
X3506254Y6352500D02*
X3533338D01*
X3519796D01*
Y6433754D01*
X3506254Y6420211D01*
%TF.MD5,ccd9859f03c41f81ac687568e12aa8d5*%
M02*
