%TF.GenerationSoftware,Altium Limited,Altium Designer,19.1.8 (144)*%
G04 Layer_Color=255*
%FSLAX45Y45*%
%MOMM*%
%TF.FileFunction,Pads,Bot*%
%TF.Part,Single*%
G01*
G75*
%TA.AperFunction,ComponentPad*%
%ADD35C,1.50000*%
%ADD36R,1.50000X1.50000*%
%ADD37C,1.50000*%
%ADD38C,2.00000*%
%ADD39C,0.85000*%
%ADD40R,1.50000X1.50000*%
D35*
X6652500Y3749000D02*
D03*
Y4257000D02*
D03*
Y4003000D02*
D03*
Y1209000D02*
D03*
Y1717000D02*
D03*
Y1463000D02*
D03*
Y2479000D02*
D03*
Y2987000D02*
D03*
Y2733000D02*
D03*
X1207500Y4151500D02*
D03*
Y4405500D02*
D03*
Y3366500D02*
D03*
Y3620500D02*
D03*
X1876500Y5331500D02*
D03*
Y5077500D02*
D03*
X1622500Y5331500D02*
D03*
Y5077500D02*
D03*
X1368500Y5331500D02*
D03*
Y5077500D02*
D03*
X1114500Y5331500D02*
D03*
X5717500Y5327500D02*
D03*
X6367500D02*
D03*
Y5777500D02*
D03*
X2416000Y9554000D02*
D03*
X1400000D02*
D03*
X6652500Y7711500D02*
D03*
Y7457500D02*
D03*
Y7203500D02*
D03*
Y6949500D02*
D03*
Y6695500D02*
D03*
Y6441500D02*
D03*
Y6187500D02*
D03*
Y4651000D02*
D03*
X549000Y4022500D02*
D03*
X6337500Y4648500D02*
D03*
X543500Y3690714D02*
D03*
X797500D02*
D03*
X543500Y3347857D02*
D03*
X797500D02*
D03*
X3948000Y2596000D02*
D03*
Y818000D02*
D03*
Y1072000D02*
D03*
Y1326000D02*
D03*
Y1580000D02*
D03*
Y1834000D02*
D03*
Y2088000D02*
D03*
Y2342000D02*
D03*
Y2850000D02*
D03*
X543500Y3005000D02*
D03*
X797500D02*
D03*
X543500Y2662143D02*
D03*
X797500D02*
D03*
X543500Y2319286D02*
D03*
X797500D02*
D03*
X543500Y1976429D02*
D03*
X797500D02*
D03*
X3582000Y6606000D02*
D03*
X3328000Y6860000D02*
D03*
Y6606000D02*
D03*
X3074000Y6860000D02*
D03*
Y6606000D02*
D03*
X2820000Y6860000D02*
D03*
Y6606000D02*
D03*
X2566000Y6860000D02*
D03*
Y6606000D02*
D03*
X2312000Y6860000D02*
D03*
Y6606000D02*
D03*
X2058000Y6860000D02*
D03*
Y6606000D02*
D03*
X1804000Y6860000D02*
D03*
Y6606000D02*
D03*
X1550000Y6860000D02*
D03*
Y6606000D02*
D03*
X1296000Y6860000D02*
D03*
Y6606000D02*
D03*
X1042000Y6860000D02*
D03*
Y6606000D02*
D03*
X788000Y6860000D02*
D03*
Y6606000D02*
D03*
X543500Y1633572D02*
D03*
X797500D02*
D03*
X543500Y1290714D02*
D03*
X797500D02*
D03*
X3186000Y1072000D02*
D03*
Y1326000D02*
D03*
Y1580000D02*
D03*
Y1834000D02*
D03*
Y2088000D02*
D03*
Y2342000D02*
D03*
Y2596000D02*
D03*
D36*
X6652500Y3495000D02*
D03*
Y955000D02*
D03*
Y2225000D02*
D03*
X1207500Y3897500D02*
D03*
Y3112500D02*
D03*
X2416000Y9300000D02*
D03*
X1400000D02*
D03*
X6652500Y7965500D02*
D03*
Y4905000D02*
D03*
X6337500Y4902500D02*
D03*
X3948000Y3104000D02*
D03*
X3186000Y818000D02*
D03*
D37*
X5475000Y3050000D02*
D03*
Y2623500D02*
D03*
X5475000Y1770500D02*
D03*
X5475000Y3476501D02*
D03*
X2140000Y987500D02*
D03*
X5475000Y3903000D02*
D03*
X5475000Y2197000D02*
D03*
X5402500Y7719500D02*
D03*
X5402500Y8126500D02*
D03*
X5402500Y6122500D02*
D03*
Y6518000D02*
D03*
X5402500Y6912501D02*
D03*
X5402500Y7307000D02*
D03*
D38*
X5865000Y8847500D02*
D03*
X2967814Y7729778D02*
D03*
D39*
X4298500Y6619000D02*
D03*
Y6746000D02*
D03*
X4425500Y6619000D02*
D03*
Y6746000D02*
D03*
X4552500Y6619000D02*
D03*
Y6746000D02*
D03*
X4679500Y6619000D02*
D03*
Y6746000D02*
D03*
X4806500Y6619000D02*
D03*
Y6746000D02*
D03*
D40*
X1114500Y5077500D02*
D03*
X5717500Y5777500D02*
D03*
X295000Y4022500D02*
D03*
X289500Y3690714D02*
D03*
Y3347857D02*
D03*
Y3005000D02*
D03*
Y2662143D02*
D03*
Y2319286D02*
D03*
Y1976429D02*
D03*
X3582000Y6860000D02*
D03*
X289500Y1633572D02*
D03*
Y1290714D02*
D03*
%TF.MD5,d7a7aa4b33364f4a1ba145234a7c26c6*%
M02*
