%TF.GenerationSoftware,Altium Limited,Altium Designer,19.1.8 (144)*%
G04 Layer_Color=16711935*
%FSLAX45Y45*%
%MOMM*%
%TF.FileFunction,Other,Mechanical_13*%
%TF.Part,Single*%
G01*
G75*
%TA.AperFunction,NonConductor*%
%ADD75C,0.10000*%
D75*
X1467443Y8397441D02*
G03*
X1467443Y8397441I-50000J0D01*
G01*
X4364629Y9515163D02*
G03*
X4364629Y9515163I-50000J0D01*
G01*
X3432500Y5755000D02*
G03*
X3432500Y5755000I-50000J0D01*
G01*
X2487500Y3933000D02*
G03*
X2487500Y3933000I-50000J0D01*
G01*
X2485000Y3275000D02*
G03*
X2485000Y3275000I-50000J0D01*
G01*
X1637443Y8077441D02*
Y8487441D01*
X1327443D02*
X1637443D01*
X1327443Y8077441D02*
X1637443D01*
X1327443D02*
Y8487441D01*
X4224629Y9195163D02*
X4534629D01*
X4224629Y9605163D02*
X4534629D01*
Y9195163D02*
Y9605163D01*
X4224629Y9195163D02*
Y9605163D01*
X770000Y5843993D02*
Y6135993D01*
X900000Y5843993D02*
Y6135993D01*
X770000D02*
X900000D01*
X770000Y5843993D02*
X900000D01*
X1110279Y5843709D02*
Y6135709D01*
X1240279Y5843709D02*
Y6135709D01*
X1110279D02*
X1240279D01*
X1110279Y5843709D02*
X1240279D01*
X1450000Y5843993D02*
Y6135993D01*
X1580000Y5843993D02*
Y6135993D01*
X1450000D02*
X1580000D01*
X1450000Y5843993D02*
X1580000D01*
X1790000D02*
Y6135993D01*
X1920000Y5843993D02*
Y6135993D01*
X1790000D02*
X1920000D01*
X1790000Y5843993D02*
X1920000D01*
X5847500Y6757500D02*
Y7057500D01*
X5987500Y6757500D02*
Y7057500D01*
X5847500D02*
X5987500D01*
X5847500Y6757500D02*
X5987500D01*
X5847500Y7151999D02*
Y7451999D01*
X5987500Y7151999D02*
Y7451999D01*
X5847500D02*
X5987500D01*
X5847500Y7151999D02*
X5987500D01*
X5847500Y5967500D02*
Y6267500D01*
X5987500Y5967500D02*
Y6267500D01*
X5847500D02*
X5987500D01*
X5847500Y5967500D02*
X5987500D01*
X5847500Y6363000D02*
Y6663000D01*
X5987500Y6363000D02*
Y6663000D01*
X5847500D02*
X5987500D01*
X5847500Y6363000D02*
X5987500D01*
X5847500Y7564500D02*
Y7864500D01*
X5987500Y7564500D02*
Y7864500D01*
X5847500D02*
X5987500D01*
X5847500Y7564500D02*
X5987500D01*
X5847500Y7971500D02*
Y8271500D01*
X5987500Y7971500D02*
Y8271500D01*
X5847500D02*
X5987500D01*
X5847500Y7971500D02*
X5987500D01*
X2025000Y1157500D02*
Y2127500D01*
X1585000Y1157500D02*
X2025000D01*
X1585000D02*
Y2127500D01*
X2025000D01*
X5743000Y5253000D02*
X6342000D01*
Y5852000D01*
X5743000D02*
X6342000D01*
X5743000Y5253000D02*
Y5852000D01*
X3292500Y4845000D02*
Y5845000D01*
X4292500Y4845000D02*
Y5845000D01*
X3292500D02*
X4292500D01*
X3292500Y4845000D02*
X4292500D01*
X5920001Y1620500D02*
Y1920500D01*
X6060001Y1620500D02*
Y1920500D01*
X5920001D02*
X6060001D01*
X5920001Y1620500D02*
X6060001D01*
X5920001Y2047000D02*
Y2347000D01*
X6060001Y2047000D02*
Y2347000D01*
X5920001D02*
X6060001D01*
X5920001Y2047000D02*
X6060001D01*
X5920000Y3326501D02*
Y3626500D01*
X6060000Y3326501D02*
Y3626500D01*
X5920000D02*
X6060000D01*
X5920000Y3326501D02*
X6060000D01*
X5920000Y3753000D02*
Y4053000D01*
X6060000Y3753000D02*
Y4053000D01*
X5920000D02*
X6060000D01*
X5920000Y3753000D02*
X6060000D01*
X5920000Y2473500D02*
Y2773500D01*
X6060000Y2473500D02*
Y2773500D01*
X5920000D02*
X6060000D01*
X5920000Y2473500D02*
X6060000D01*
X5920000Y2900000D02*
Y3200000D01*
X6060000Y2900000D02*
Y3200000D01*
X5920000D02*
X6060000D01*
X5920000Y2900000D02*
X6060000D01*
X2527500Y3843000D02*
Y4333000D01*
X2137500Y3843000D02*
Y4333000D01*
Y3843000D02*
X2527500D01*
X2137500Y4333000D02*
X2527500D01*
X2525000Y3185000D02*
Y3675000D01*
X2135000Y3185000D02*
Y3675000D01*
Y3185000D02*
X2525000D01*
X2135000Y3675000D02*
X2525000D01*
%TF.MD5,77d7765833dac97655ffb9f8f2b46451*%
M02*
